<svg width="869" height="264" viewBox="0 0 869 264" fill="none" xmlns="http://www.w3.org/2000/svg">
<path fill-rule="evenodd" clip-rule="evenodd" d="M837.152 220.695L833.5 242L804 243.5L767.016 188.934C760.86 167.386 692.498 173.175 678.016 188.934L629 257.5L255 263.5L247.285 218.751C246.145 212.139 242.065 205.087 236.23 198.32C211.493 169.631 169.498 163.487 136.811 182.63C122.23 191.17 108.202 201.376 105.001 210.428L88 258.5L37 256.5L39 214.5L0 216.402L42.0164 77.9339L376.016 76.9339L379.419 18.2508C380.785 7.80915 389.683 0 400.213 0H534.183C545.555 0 556.102 5.93742 562.002 15.6602L606.5 89L792.95 98.6568C827.299 100.436 852.39 131.807 846.579 165.707L845.122 174.204C858.085 175.925 868.016 185.67 868.016 197.434C868.016 210.413 855.928 220.934 841.016 220.934C839.704 220.934 838.414 220.852 837.152 220.695ZM427.004 44.6262L416 96.5L556 99.5L526.432 36.0148C523.749 30.2556 517.861 26.68 511.514 26.9559L444.427 29.8728C435.934 30.242 428.767 36.3106 427.004 44.6262ZM547 23.5L575 95.5L590.72 99.5L600 85.5L554.331 16.1693L547 23.5Z" fill="#E6E6E6"/>
<path d="M452.5 123H414.5V115H452.5V123Z" fill="#3F3D56"/>
</svg>
