<svg width="182" height="140" viewBox="0 0 182 140" fill="none" xmlns="http://www.w3.org/2000/svg">
<path d="M11.5879 82.8516L7.45084 75.9567L46.0648 42.8586C74.612 29.118 109.023 33.0827 145.359 42.8586V52.5117L109.503 91.1266L68.1299 99.4006L11.5879 82.8516Z" fill="#3F3D56"/>
<path d="M162.451 62.2816C169.308 54.6544 170.261 47.4016 162.451 40.7047H149.451V47.5087L145.359 42.8587L112.261 75.9567L106.744 81.4727L99.8488 109.055L112.261 139.394H175.698V77.3356L162.451 62.2816Z" fill="#F2F2F2"/>
<path d="M7.45084 75.9564H112.261V139.394H7.45084C-5.22912 125.675 1.35807 100.671 7.45084 75.9564Z" fill="#F2F2F2"/>
<path d="M97.7804 95.953H75.7151V115.26H97.7804V95.953Z" fill="#3F3D56"/>
<path d="M66.7512 95.2634H47.4441V139.394H66.7512V95.2634Z" fill="#CCCCCC"/>
<path d="M39.1696 95.2634H30.8951V102.159H39.1696V95.2634Z" fill="#3F3D56"/>
<path d="M39.1696 107.675H30.8951V114.57H39.1696V107.675Z" fill="#3F3D56"/>
<path d="M141.911 102.849V95.953H133.636V102.849H141.221H141.911Z" fill="#3F3D56"/>
<path d="M141.221 108.365H133.636V115.26H141.911V108.365H141.221Z" fill="#3F3D56"/>
<path d="M155.702 95.953H147.427V102.848H155.702V95.953Z" fill="#3F3D56"/>
<path d="M155.702 108.365H147.427V115.26H155.702V108.365Z" fill="#3F3D56"/>
<path d="M71.7926 1.52588e-05H83.6784C95.4014 1.52588e-05 106.644 4.65693 114.934 12.9463C123.223 21.2357 127.88 32.4786 127.88 44.2016V44.2016H71.7926V1.52588e-05Z" fill="#3F3D56"/>
<path d="M58.513 46.289L145.387 42.039L181.83 72.458L175.387 78.275L117.678 76.976L58.513 46.289Z" fill="#3F3D56"/>
</svg>
