<svg width="219" height="354" viewBox="0 0 219 354" fill="none" xmlns="http://www.w3.org/2000/svg">
<path d="M218.907 353.449H0.40683V74.9226C0.40683 38.6747 29.8969 9.18454 66.1449 9.18454H153.169C189.417 9.18454 218.907 38.6747 218.907 74.9226V353.449Z" fill="#E6E6E6"/>
<path d="M144.239 71.8551H76.0248C70.5485 71.8551 66.0932 67.3998 66.0932 61.923V43.6767C66.0932 38.1999 70.5485 33.7446 76.0248 33.7446H144.239C149.715 33.7446 154.171 38.2 154.171 43.6767V61.923C154.171 67.3998 149.715 71.8551 144.239 71.8551V71.8551Z" fill="white"/>
<path d="M111.774 151.04L111.774 14.6894H110.927L110.927 151.04H111.774Z" fill="#E6E6E6"/>
<path d="M193.296 301.788H175.918C170.903 301.788 166.823 297.708 166.823 292.692V239.745C166.823 234.729 170.903 230.649 175.918 230.649H193.296C198.312 230.649 202.392 234.729 202.392 239.745V292.692C202.392 297.708 198.312 301.788 193.296 301.788V301.788Z" fill="white"/>
<path d="M79.8119 339.052H31.9456C26.9299 339.052 22.8497 334.971 22.8497 329.956V236.357C22.8497 231.342 26.9299 227.261 31.9456 227.261H79.8119C84.8276 227.261 88.9078 231.342 88.9078 236.357V329.956C88.9078 334.971 84.8276 339.052 79.8119 339.052V339.052Z" fill="white"/>
<path d="M90.0793 234.46H21.7241C19.1515 234.46 16.9764 232.878 16.1828 230.431C15.3897 227.984 16.2229 225.428 18.3059 223.917L52.8497 198.884C54.9165 197.388 57.6834 197.402 59.734 198.921L93.5451 223.954C95.602 225.476 96.4125 228.03 95.611 230.46C94.8092 232.89 92.6382 234.46 90.0793 234.46V234.46Z" fill="#CCCCCC"/>
<path d="M200.416 235.307H168.844C166.272 235.307 164.097 233.725 163.303 231.278C162.509 228.831 163.343 226.274 165.426 224.764L181.382 213.202C183.448 211.705 186.215 211.719 188.265 213.238L203.882 224.801C205.939 226.322 206.75 228.876 205.948 231.306C205.146 233.736 202.975 235.307 200.416 235.307V235.307Z" fill="#CCCCCC"/>
<path d="M186.333 185.763H166.791C162.372 185.763 158.777 182.168 158.777 177.749V122.638C158.777 118.219 162.372 114.624 166.791 114.624H186.333C190.752 114.624 194.347 118.219 194.347 122.638V177.749C194.347 182.168 190.752 185.763 186.333 185.763V185.763Z" fill="white"/>
<path d="M119.428 185.763H99.8857C95.4667 185.763 91.8719 182.168 91.8719 177.749V122.638C91.8719 118.219 95.4667 114.624 99.8857 114.624H119.428C123.847 114.624 127.442 118.219 127.442 122.638V177.749C127.442 182.168 123.847 185.763 119.428 185.763Z" fill="white"/>
<path d="M51.6761 185.763H32.1337C27.7148 185.763 24.12 182.168 24.12 177.749V122.638C24.12 118.219 27.7148 114.624 32.1337 114.624H51.6761C56.095 114.624 59.6898 118.219 59.6898 122.638V177.749C59.6898 182.168 56.095 185.763 51.6761 185.763Z" fill="white"/>
<path d="M192.231 120.975H27.0821C24.1242 120.975 22.3133 118.88 21.8307 116.805C21.3482 114.729 22.0495 112.05 24.7043 110.745L108.164 69.7321C109.668 68.9935 111.461 69.0001 112.961 69.7527L194.65 110.765C196.965 111.928 198.075 114.308 197.478 116.828C196.88 119.347 194.821 120.975 192.231 120.975V120.975Z" fill="#CCCCCC"/>
<path d="M218.483 353.026H103.729V331.756C103.729 314.999 117.312 301.365 134.008 301.365H218.483V353.026V353.026Z" fill="#3F3D56"/>
<path d="M137.181 271.3H126.171V311.951H137.181V271.3Z" fill="#3F3D56"/>
<path d="M218.483 271.3H207.474V311.951H218.483V271.3Z" fill="#3F3D56"/>
<path d="M210.861 274.687H135.487V275.534H210.861V274.687Z" fill="#3F3D56"/>
<path d="M202.392 150.193H19.4621V151.04H202.392V150.193Z" fill="#E6E6E6"/>
<path d="M210.861 288.238H135.487V289.085H210.861V288.238Z" fill="#3F3D56"/>
<path d="M210.861 295.013H135.487V295.86H210.861V295.013Z" fill="#3F3D56"/>
<path d="M152.428 37.3588H66.886C65.5544 37.3588 64.4288 36.5409 64.0182 35.2738C63.6075 34.0076 64.0388 32.6843 65.1169 31.9028L108.346 0.575765C109.416 -0.197525 110.848 -0.192565 111.909 0.594785L154.221 31.9218C155.286 32.7091 155.705 34.0308 155.291 35.2887C154.876 36.5458 153.752 37.3588 152.428 37.3588V37.3588Z" fill="#CCCCCC"/>
<path d="M41.4814 284.003H26.2372V285.697H41.4814V284.003Z" fill="#E6E6E6"/>
</svg>
