<svg width="538" height="453" viewBox="0 0 538 453" fill="none" xmlns="http://www.w3.org/2000/svg">
<path d="M475.731 320.621H62.809V443.028H475.731V320.621Z" fill="#F0F0F0"/>
<path d="M293.343 345.918H245.196V443.028H293.343V345.918Z" fill="#CACACA"/>
<path d="M451.657 176.18H86.8825V288.795H451.657V176.18Z" fill="#F0F0F0"/>
<path d="M488.639 183.116H49.9008C49.1684 183.116 48.4526 182.897 47.8456 182.487C47.2386 182.077 46.7681 181.495 46.4945 180.816C46.2209 180.136 46.1567 179.39 46.3102 178.674C46.4638 177.958 46.828 177.304 47.356 176.797L167.263 61.5406V11.3376C167.265 10.364 167.652 9.43056 168.34 8.74213C169.029 8.05369 169.962 7.66644 170.936 7.66534H194.601C195.575 7.66641 196.508 8.05365 197.197 8.74209C197.885 9.43054 198.272 10.3639 198.273 11.3376V31.734L207.33 23.0284C222.151 8.78251 241.814 0.673915 262.368 0.332122C282.923 -0.00967154 302.845 7.44068 318.131 21.1859L491.094 176.713C491.646 177.21 492.035 177.862 492.209 178.585C492.383 179.307 492.333 180.065 492.067 180.759C491.801 181.452 491.331 182.049 490.719 182.47C490.107 182.891 489.382 183.116 488.639 183.116V183.116Z" fill="#CACACA"/>
<path d="M183.176 204.742C186.231 204.742 189.255 205.343 192.077 206.512C194.898 207.681 197.462 209.394 199.622 211.553C201.782 213.713 203.495 216.277 204.663 219.099C205.832 221.92 206.434 224.945 206.434 227.999V259.417H159.919V227.999C159.919 221.831 162.369 215.915 166.731 211.553C171.093 207.192 177.008 204.742 183.176 204.742V204.742Z" fill="white"/>
<path d="M269.27 205.15C272.324 205.15 275.348 205.751 278.17 206.92C280.992 208.089 283.556 209.802 285.715 211.961C287.875 214.121 289.588 216.685 290.757 219.507C291.926 222.328 292.527 225.353 292.527 228.407V259.825H246.012V228.407C246.012 225.353 246.614 222.328 247.783 219.507C248.952 216.685 250.665 214.121 252.824 211.961C254.984 209.802 257.548 208.089 260.37 206.92C263.191 205.751 266.216 205.15 269.27 205.15Z" fill="white"/>
<path d="M355.363 205.558C358.417 205.558 361.442 206.159 364.263 207.328C367.085 208.497 369.649 210.21 371.809 212.37C373.968 214.529 375.681 217.093 376.85 219.915C378.019 222.736 378.621 225.761 378.621 228.815V260.233H332.106V228.815C332.106 225.761 332.707 222.736 333.876 219.915C335.045 217.093 336.758 214.529 338.918 212.37C341.077 210.21 343.641 208.497 346.463 207.328C349.285 206.159 352.309 205.558 355.363 205.558V205.558Z" fill="white"/>
<path d="M389.637 344.694C395.805 344.694 401.721 347.145 406.083 351.506C410.444 355.868 412.895 361.783 412.895 367.952V399.37H366.38V367.952C366.38 361.783 368.83 355.868 373.192 351.506C377.553 347.145 383.469 344.694 389.637 344.694Z" fill="white"/>
<path d="M159.511 344.694C165.679 344.694 171.595 347.145 175.956 351.506C180.318 355.868 182.768 361.783 182.768 367.952V399.37H136.254V367.952C136.254 364.897 136.855 361.873 138.024 359.051C139.193 356.23 140.906 353.666 143.065 351.506C145.225 349.346 147.789 347.633 150.611 346.465C153.432 345.296 156.457 344.694 159.511 344.694V344.694Z" fill="white"/>
<path d="M536.057 322.532L458.597 288.258C458.181 288.074 457.731 287.979 457.277 287.979H88.1177C87.6963 287.979 87.2789 288.06 86.8885 288.219L2.57389 322.493C1.87259 322.778 1.2922 323.298 0.932043 323.964C0.57189 324.63 0.454374 325.4 0.599615 326.143C0.744856 326.886 1.14382 327.556 1.72822 328.037C2.31261 328.518 3.0461 328.781 3.80314 328.781H25.6787V441.396H23.2306V452.821H515.309V441.396H511.229V328.781H534.736C535.485 328.781 536.21 328.524 536.792 328.053C537.373 327.581 537.775 326.924 537.93 326.192C538.084 325.46 537.983 324.696 537.642 324.03C537.301 323.364 536.741 322.835 536.057 322.532V322.532ZM504.7 441.396H32.2071V328.781H504.7V441.396Z" fill="#CACACA"/>
<path d="M212.146 254.929H152.575V264.721H212.146V254.929Z" fill="#CACACA"/>
<path d="M299.464 254.929H239.892V264.721H299.464V254.929Z" fill="#CACACA"/>
<path d="M386.781 254.929H327.209V264.721H386.781V254.929Z" fill="#CACACA"/>
<path d="M419.423 396.105H359.851V405.898H419.423V396.105Z" fill="#CACACA"/>
<path d="M188.481 396.105H128.909V405.898H188.481V396.105Z" fill="#CACACA"/>
<path d="M391.988 368.979L391.706 365.465C391.34 364.086 387.896 368.413 387.485 368.507C386.398 368.278 385.28 368.227 384.176 368.358C384.324 362.052 383.354 364.911 380.536 367.757C371.459 372.358 374.788 386.896 385.124 386.97C394.548 387.518 399.237 374.708 391.988 368.979Z" fill="#3F3D56"/>
<path d="M393.264 383.241C397.023 383.181 401.752 396.372 392.844 396.441C388.235 396.476 380.075 397.375 380.075 397.375C380.075 397.375 373.732 387.855 376.561 381.933L393.264 383.241Z" fill="#3F3D56"/>
<path d="M384.996 390.212V397.046H388.191L390.726 390.087" fill="#3F3D56"/>
<path d="M388.191 397.171C388.126 397.099 384.736 397.325 384.871 397.046L384.871 390.212C385.436 389.296 384.983 397.01 385.121 396.922H388.104C388.251 396.836 390.456 389.835 390.769 389.97C390.784 389.976 390.798 389.984 390.81 389.995C390.823 390.006 390.832 390.02 390.839 390.034C390.846 390.049 390.85 390.065 390.851 390.082C390.852 390.098 390.849 390.114 390.844 390.13C390.725 390.215 388.43 397.214 388.191 397.171Z" fill="white"/>
<path d="M395.896 396.627C395.986 397.751 390.574 397.751 390.664 396.627C390.574 395.504 395.987 395.504 395.896 396.627Z" fill="#3F3D56"/>
<path d="M391.972 395.88C391.66 395.956 390.604 390.771 393.815 390.038C390.69 391.703 392.3 395.553 391.972 395.88Z" fill="white"/>
<path d="M396.41 394.741C396.392 394.716 396.38 394.69 396.364 394.664L395.956 394.679L396.41 394.741Z" fill="#3F3D56"/>
<path d="M409.986 390.792C408.145 388.055 404.59 389.299 403.199 391.804C401.549 394.825 394.499 392.578 395.379 396.635C399.781 395.706 412.808 398.885 409.986 390.792Z" fill="#3F3D56"/>
<path d="M384.58 386.07C381.689 386.634 376.591 383.053 376.455 381.997C376.439 381.969 376.434 381.936 376.442 381.905C376.45 381.873 376.47 381.846 376.498 381.829C376.526 381.812 376.559 381.807 376.59 381.814C376.622 381.821 376.649 381.84 376.667 381.867C377.651 383.264 379.005 384.358 380.577 385.026C383.013 386.259 387.463 386.288 393.372 383.178C390.795 384.997 387.734 386.004 384.58 386.07V386.07Z" fill="white"/>
<path d="M385.12 379.747C384.468 379.95 383.901 378.375 384.498 378.875C384.498 379.04 384.563 379.199 384.68 379.315C384.797 379.432 384.955 379.498 385.12 379.498C385.653 379.551 385.627 378.969 385.868 378.751C386.283 379.084 385.572 379.81 385.12 379.747Z" fill="white"/>
<path d="M383.937 396.649C383.689 396.682 381.942 390.407 381.825 390.312C381.815 390.28 381.818 390.246 381.833 390.217C381.848 390.188 381.874 390.165 381.906 390.155C382.232 390.025 383.908 396.403 384.056 396.486C384.062 396.505 384.063 396.525 384.06 396.544C384.056 396.563 384.049 396.582 384.037 396.597C384.026 396.613 384.011 396.626 383.993 396.635C383.976 396.644 383.957 396.648 383.937 396.649V396.649Z" fill="white"/>
<path d="M389.169 397.5C389.259 398.623 383.847 398.623 383.937 397.499C383.847 396.376 389.26 396.376 389.169 397.5Z" fill="#3F3D56"/>
<path d="M384.934 397.375C385.024 398.498 379.611 398.498 379.701 397.375C379.612 396.252 385.024 396.252 384.934 397.375Z" fill="#3F3D56"/>
<path d="M386.179 377.318C386.211 377.812 384.154 377.812 384.186 377.318C384.154 376.824 386.211 376.824 386.179 377.318Z" fill="white"/>
<path d="M378.482 377.346C378.768 377.006 379.124 376.733 379.527 376.545C379.93 376.357 380.369 376.26 380.814 376.26C381.258 376.26 381.697 376.357 382.1 376.545C382.503 376.733 382.86 377.006 383.146 377.346C386.359 374.367 381.607 369.388 378.481 372.461C378.151 372.776 377.889 373.155 377.709 373.575C377.53 373.995 377.437 374.447 377.437 374.903C377.437 375.36 377.53 375.812 377.709 376.232C377.889 376.652 378.152 377.031 378.482 377.346V377.346Z" fill="white"/>
<path d="M387.6 377.346C387.886 377.006 388.243 376.733 388.646 376.545C389.049 376.357 389.488 376.26 389.932 376.26C390.377 376.26 390.816 376.357 391.219 376.545C391.622 376.733 391.979 377.006 392.265 377.346C395.478 374.367 390.726 369.388 387.6 372.461C387.27 372.776 387.008 373.155 386.828 373.575C386.649 373.995 386.556 374.447 386.556 374.903C386.556 375.36 386.649 375.812 386.828 376.232C387.008 376.651 387.27 377.031 387.6 377.346V377.346Z" fill="white"/>
<path d="M379.333 374.07C379.636 374.078 379.923 374.204 380.134 374.421C380.345 374.638 380.464 374.929 380.464 375.232C380.464 375.535 380.345 375.825 380.134 376.042C379.923 376.259 379.636 376.385 379.333 376.393C379.03 376.385 378.743 376.259 378.532 376.042C378.32 375.825 378.202 375.534 378.202 375.232C378.202 374.929 378.321 374.638 378.532 374.421C378.743 374.204 379.03 374.078 379.333 374.07V374.07Z" fill="#3F3D56"/>
<path d="M388.451 374.07C388.754 374.078 389.042 374.204 389.253 374.421C389.464 374.638 389.582 374.929 389.582 375.232C389.582 375.535 389.464 375.825 389.253 376.042C389.042 376.259 388.754 376.385 388.451 376.393C388.149 376.385 387.861 376.259 387.65 376.042C387.439 375.825 387.321 375.534 387.321 375.232C387.321 374.929 387.439 374.638 387.65 374.421C387.861 374.204 388.149 374.078 388.451 374.07V374.07Z" fill="#3F3D56"/>
<path d="M390.041 377.769C390.306 377.776 390.558 377.886 390.743 378.076C390.928 378.267 391.032 378.521 391.032 378.787C391.032 379.052 390.928 379.307 390.743 379.497C390.558 379.687 390.306 379.797 390.041 379.805C389.776 379.797 389.524 379.687 389.339 379.497C389.154 379.307 389.05 379.052 389.05 378.787C389.05 378.521 389.154 378.266 389.339 378.076C389.524 377.886 389.776 377.776 390.041 377.769V377.769Z" fill="#FF6584"/>
<path d="M380.841 377.769C381.107 377.776 381.359 377.886 381.544 378.076C381.729 378.267 381.832 378.521 381.832 378.787C381.832 379.052 381.729 379.307 381.544 379.497C381.358 379.687 381.107 379.797 380.841 379.805C380.576 379.797 380.324 379.687 380.139 379.497C379.954 379.307 379.851 379.052 379.851 378.787C379.851 378.521 379.954 378.266 380.139 378.076C380.324 377.886 380.576 377.776 380.841 377.769V377.769Z" fill="#FF6584"/>
</svg>
