<svg width="436" height="214" viewBox="0 0 436 214" fill="none" xmlns="http://www.w3.org/2000/svg">
<path d="M411.865 89.244V213.931H15.9908V105.187L29.1277 79.0353H406.448L411.865 89.244Z" fill="#E6E6E6"/>
<path d="M435.59 133.942L411.865 117.308L369.837 87.8475L307.473 135.298L15.9908 136.925L0 137.013L15.9908 105.187L29.1277 79.0353L45.139 17.3495L388.817 15.9937L406.448 79.0353L411.865 89.244L435.59 133.942Z" fill="#2F2E41"/>
<path d="M262.734 117.284H105.469V50.8531L184.102 22.0945L262.734 50.8531V117.284Z" fill="#E6E6E6"/>
<path d="M97.6736 145.805H28.5313V213.931H97.6736V145.805Z" fill="white"/>
<path d="M249.516 145.805H124.11V213.931H249.516V145.805Z" fill="white"/>
<path d="M294.255 151.228H273.241V213.931H294.255V151.228Z" fill="white"/>
<path d="M385.461 137.01H342.705V180.257H385.461V137.01Z" fill="#CCCCCC"/>
<path d="M365.312 137.01H362.363V180.257H365.312V137.01Z" fill="#E6E6E6"/>
<path d="M249.21 62.4452H206.454V105.692H249.21V62.4452Z" fill="#CCCCCC"/>
<path d="M229.061 62.4452H226.112V105.692H229.061V62.4452Z" fill="#E6E6E6"/>
<path d="M170.577 62.4452H127.822V105.692H170.577V62.4452Z" fill="#CCCCCC"/>
<path d="M150.428 62.4452H147.479V105.692H150.428V62.4452Z" fill="#E6E6E6"/>
<path d="M378.59 101.931H358.59V121.931H378.59V101.931Z" fill="#3F3D56"/>
<path d="M228.292 -10H218.292V22H228.292V-10Z" fill="#2F2E41"/>
</svg>
