<svg width="470" height="316" viewBox="0 0 470 316" fill="none" xmlns="http://www.w3.org/2000/svg">
<path d="M434.646 314.017H89.7827C80.3635 314.017 72.7002 307.077 72.7002 298.547V89.7883C72.7445 88.0485 73.311 86.3623 74.3262 84.9486C75.3413 83.535 76.7582 82.4594 78.3926 81.8615L238.968 17.6286C253.723 11.7912 270.146 11.783 284.906 17.6057L446.027 81.8644C447.663 82.4609 449.083 83.5364 450.1 84.9508C451.117 86.3652 451.684 88.0531 451.729 89.7946V298.547C451.729 307.077 444.065 314.017 434.646 314.017Z" fill="#F2F2F2"/>
<path d="M181.693 170.555V148.964C181.693 146.148 180.574 143.448 178.583 141.457C176.592 139.465 173.891 138.347 171.075 138.347H116.592C113.776 138.347 111.075 139.465 109.084 141.457C107.092 143.448 105.974 146.148 105.974 148.964V170.555H181.693Z" fill="white"/>
<path d="M105.974 173.946V207.403C105.974 210.219 107.092 212.92 109.084 214.911C111.075 216.902 113.776 218.021 116.592 218.021H171.075C173.891 218.021 176.592 216.902 178.583 214.911C180.574 212.92 181.693 210.219 181.693 207.403V173.946H105.974Z" fill="white"/>
<path d="M438.613 111.292L275.037 51.3289C265.095 47.6844 254.183 47.6844 244.241 51.3289L80.6652 111.292C77.2176 112.556 73.5159 112.969 69.8746 112.496C66.2332 112.023 62.7599 110.678 59.7496 108.575C56.7394 106.472 54.2811 103.674 52.5837 100.418C50.8864 97.1621 50 93.5445 50 89.8726V89.8726C50 85.1998 51.4349 80.6397 54.1107 76.8089C56.7865 72.9781 60.5741 70.0614 64.9614 68.4531L244.241 2.73339C254.183 -0.91113 265.095 -0.91113 275.037 2.73339L454.317 68.4531C458.704 70.0614 462.492 72.9781 465.168 76.8089C467.843 80.6397 469.278 85.1998 469.278 89.8726V89.8726C469.278 93.5445 468.392 97.1621 466.695 100.418C464.997 103.674 462.539 106.472 459.529 108.575C456.518 110.678 453.045 112.023 449.404 112.496C445.762 112.969 442.061 112.556 438.613 111.292Z" fill="#3F3D56"/>
<path d="M286.052 315.017H242.333C237.693 315.011 233.245 313.166 229.964 309.885C226.684 306.604 224.838 302.156 224.833 297.517V191.641C224.838 187.001 226.684 182.553 229.964 179.272C233.245 175.991 237.693 174.146 242.333 174.141H286.052C290.691 174.146 295.14 175.991 298.42 179.272C301.701 182.553 303.546 187.001 303.552 191.641V297.517C303.546 302.156 301.701 306.604 298.42 309.885C295.14 313.166 290.691 315.011 286.052 315.017V315.017ZM242.333 177.141C238.489 177.145 234.803 178.674 232.085 181.392C229.367 184.111 227.837 187.796 227.833 191.641V297.517C227.837 301.361 229.367 305.046 232.085 307.765C234.803 310.483 238.489 312.012 242.333 312.017H286.052C289.896 312.012 293.582 310.483 296.3 307.765C299.018 305.046 300.547 301.361 300.552 297.517V191.641C300.547 187.796 299.018 184.111 296.3 181.392C293.582 178.674 289.896 177.145 286.052 177.141H242.333Z" fill="#3F3D56"/>
<path d="M106.539 207.219C104.274 207.219 102.101 208.119 100.5 209.721C98.8979 211.323 97.998 213.495 97.998 215.76C97.998 218.026 98.8979 220.198 100.5 221.8C102.101 223.402 104.274 224.301 106.539 224.301H181.128C183.393 224.301 185.565 223.402 187.167 221.8C188.769 220.198 189.669 218.026 189.669 215.76C189.669 213.495 188.769 211.323 187.167 209.721C185.565 208.119 183.393 207.219 181.128 207.219H106.539Z" fill="#CCCCCC"/>
<path d="M290.185 247.969C293.618 247.969 296.401 245.186 296.401 241.754C296.401 238.321 293.618 235.538 290.185 235.538C286.752 235.538 283.969 238.321 283.969 241.754C283.969 245.186 286.752 247.969 290.185 247.969Z" fill="#3F3D56"/>
<path d="M81.3983 245.754L56.9153 207.67L58.0483 206.941L81.2804 243.08L100.211 206.993L101.403 207.618L81.3983 245.754Z" fill="#3F3D56"/>
<path d="M101.335 195.186H43.0927V194.176C43.0927 192.54 42.7705 190.92 42.1445 189.409C41.5185 187.897 40.6009 186.524 39.4442 185.368C38.2875 184.211 36.9144 183.293 35.4031 182.667C33.8918 182.041 32.272 181.719 30.6362 181.719V181.719C29.0004 181.719 27.3806 182.041 25.8693 182.667C24.358 183.293 22.9848 184.211 21.8281 185.368C20.6714 186.524 19.7539 187.897 19.1279 189.409C18.5019 190.92 18.1797 192.54 18.1797 194.176V195.186H12.4565C9.15282 195.186 5.98448 196.498 3.64844 198.834C1.3124 201.17 0 204.338 0 207.642C0 210.946 1.3124 214.114 3.64844 216.45C5.98448 218.786 9.15282 220.099 12.4565 220.099H18.1797V314.234C43 313.737 18 314.737 43.0927 314.234V220.099H101.335C104.639 220.099 107.807 218.786 110.143 216.45C112.479 214.114 113.791 210.946 113.791 207.642C113.791 204.338 112.479 201.17 110.143 198.834C107.807 196.498 104.639 195.186 101.335 195.186V195.186Z" fill="#3F3D56"/>
<path d="M30.2995 212.019C32.9026 212.019 35.0128 209.909 35.0128 207.305C35.0128 204.702 32.9026 202.592 30.2995 202.592C27.6964 202.592 25.5862 204.702 25.5862 207.305C25.5862 209.909 27.6964 212.019 30.2995 212.019Z" fill="white"/>
<path d="M108.737 269.751H54.8804C52.3366 269.748 49.8979 268.736 48.0992 266.938C46.3005 265.139 45.2887 262.7 45.2859 260.156V242.659C45.2888 240.116 46.3006 237.677 48.0993 235.878C49.898 234.08 52.3367 233.068 54.8804 233.065H108.737C111.281 233.068 113.719 234.08 115.518 235.878C117.317 237.677 118.328 240.116 118.331 242.659V260.156C118.328 262.7 117.317 265.139 115.518 266.938C113.719 268.736 111.281 269.748 108.737 269.751V269.751Z" fill="#CCCCCC"/>
<path d="M98.6417 247.031H64.3023C62.257 247.031 60.599 248.69 60.599 250.735C60.599 252.78 62.257 254.438 64.3023 254.438H98.6417C100.687 254.438 102.345 252.78 102.345 250.735C102.345 248.69 100.687 247.031 98.6417 247.031Z" fill="#F2F2F2"/>
<path d="M338.216 173.946V207.403C338.216 210.219 339.334 212.92 341.325 214.911C343.317 216.902 346.017 218.021 348.833 218.021H403.317C406.133 218.021 408.833 216.902 410.825 214.911C412.816 212.92 413.934 210.219 413.935 207.403V173.946H338.216Z" fill="white"/>
<path d="M413.935 170.555V148.964C413.935 146.148 412.816 143.448 410.825 141.457C408.833 139.465 406.133 138.347 403.317 138.347H348.833C346.017 138.347 343.317 139.465 341.325 141.457C339.334 143.448 338.216 146.148 338.216 148.964V170.555H413.935Z" fill="white"/>
<path d="M412.804 225.301H338.216C335.685 225.301 333.258 224.296 331.469 222.507C329.68 220.718 328.675 218.291 328.675 215.76C328.675 213.23 329.68 210.803 331.469 209.014C333.258 207.225 335.685 206.219 338.216 206.219H412.804C415.335 206.219 417.761 207.225 419.551 209.014C421.34 210.803 422.345 213.23 422.345 215.76C422.345 218.291 421.34 220.718 419.551 222.507C417.761 224.296 415.335 225.301 412.804 225.301Z" fill="#CCCCCC"/>
</svg>
