<svg width="456" height="465" viewBox="0 0 456 465" fill="none" xmlns="http://www.w3.org/2000/svg">
<path d="M435.362 464.563H33.763C22.8392 464.563 13.9522 454.732 13.9522 442.647V143.997C13.9058 141.719 14.4928 139.473 15.6481 137.508C16.8033 135.544 18.4813 133.94 20.4949 132.873L172.254 41.0025C180.573 36.8734 189.732 34.7204 199.019 34.711C208.306 34.7016 217.47 36.8361 225.797 40.9483L448.59 132.864C450.614 133.926 452.302 135.532 453.465 137.5C454.627 139.468 455.219 141.721 455.173 144.006V442.647C455.173 454.732 446.286 464.563 435.362 464.563Z" fill="#F2F2F2"/>
<path d="M231.708 99.1816C231.004 91.3103 227.379 83.9875 221.548 78.6542C215.716 73.3209 208.099 70.3633 200.197 70.3633C192.294 70.3633 184.677 73.3209 178.846 78.6542C173.014 83.9875 169.389 91.3103 168.685 99.1816H231.708Z" fill="white"/>
<path d="M168.567 102.572C168.713 110.864 172.109 118.768 178.025 124.581C183.941 130.393 191.903 133.65 200.197 133.65C208.49 133.65 216.452 130.393 222.368 124.581C228.284 118.768 231.68 110.864 231.826 102.572H168.567Z" fill="white"/>
<path d="M226.755 137.541H173.638C171.108 137.541 168.681 136.536 166.892 134.747C165.103 132.957 164.097 130.53 164.097 128C164.097 125.47 165.103 123.043 166.892 121.254C168.681 119.464 171.108 118.459 173.638 118.459H226.755C229.285 118.459 231.712 119.464 233.501 121.254C235.291 123.043 236.296 125.47 236.296 128C236.296 130.53 235.291 132.957 233.501 134.747C231.712 136.536 229.285 137.541 226.755 137.541V137.541Z" fill="#CCCCCC"/>
<path d="M454.416 153.959C454.416 153.959 436.328 152.676 399.416 150.959C355.416 73.9595 212.413 55.3994 212.413 0.000137329V0H388.178C405.764 0 422.63 6.98596 435.065 19.4211C447.5 31.8561 454.486 48.7217 454.486 66.3076L454.416 153.959Z" fill="#3F3D56"/>
<path d="M301.971 20.2437C301.573 20.2441 301.192 20.4023 300.911 20.6835C300.63 20.9647 300.471 21.346 300.471 21.7437V71.8237C300.471 72.2214 300.63 72.6027 300.911 72.8839C301.192 73.1651 301.573 73.3233 301.971 73.3237H333.166C333.564 73.3233 333.945 73.1651 334.226 72.8839C334.507 72.6027 334.666 72.2214 334.666 71.8237V21.7437C334.666 21.346 334.507 20.9647 334.226 20.6835C333.945 20.4023 333.564 20.2441 333.166 20.2437H301.971Z" fill="#F2F2F2"/>
<path d="M388.613 149.921L225.037 51.329C215.095 47.6845 204.183 47.6845 194.241 51.329L30.6652 149.921C27.2176 151.185 23.5159 151.598 19.8746 151.125C16.2333 150.652 12.7599 149.307 9.74963 147.204C6.73936 145.101 4.28111 142.303 2.58374 139.047C0.886367 135.791 -1.70727e-06 132.173 0 128.501V128.501C-1.42178e-06 123.829 1.43492 119.269 4.11072 115.438C6.78651 111.607 10.5741 108.69 14.9614 107.082L194.241 2.73338C204.183 -0.911128 215.095 -0.911128 225.037 2.73338L404.317 107.082C408.704 108.69 412.492 111.607 415.168 115.438C417.843 119.268 419.278 123.829 419.278 128.501V128.501C419.278 132.173 418.392 135.791 416.695 139.047C414.997 142.303 412.539 145.101 409.529 147.204C406.518 149.307 403.045 150.652 399.404 151.125C395.762 151.598 392.061 151.185 388.613 149.921V149.921Z" fill="#3F3D56"/>
<path d="M309.541 249.599V283.056C309.541 285.872 310.66 288.573 312.651 290.564C314.642 292.556 317.343 293.674 320.159 293.674H374.642C377.458 293.674 380.159 292.556 382.15 290.564C384.141 288.573 385.26 285.872 385.26 283.056V249.599H309.541Z" fill="white"/>
<path d="M385.26 246.209V224.618C385.26 221.802 384.141 219.101 382.15 217.11C380.159 215.119 377.458 214 374.642 214H320.159C317.343 214 314.642 215.119 312.651 217.11C310.66 219.101 309.541 221.802 309.541 224.618V246.209H385.26Z" fill="white"/>
<path d="M384.13 300.955H309.541C307.011 300.955 304.584 299.95 302.794 298.16C301.005 296.371 300 293.944 300 291.414C300 288.883 301.005 286.457 302.794 284.667C304.584 282.878 307.011 281.873 309.541 281.873H384.13C386.66 281.873 389.087 282.878 390.876 284.667C392.665 286.457 393.671 288.883 393.671 291.414C393.671 293.944 392.665 296.371 390.876 298.16C389.087 299.95 386.66 300.955 384.13 300.955Z" fill="#CCCCCC"/>
<path d="M84.541 249.599V283.056C84.541 285.872 85.6597 288.573 87.6509 290.564C89.6421 292.556 92.3428 293.674 95.1588 293.674H149.642C152.458 293.674 155.159 292.556 157.15 290.564C159.141 288.573 160.26 285.872 160.26 283.056V249.599H84.541Z" fill="white"/>
<path d="M160.26 246.209V224.618C160.26 221.802 159.141 219.101 157.15 217.11C155.159 215.119 152.458 214 149.642 214H95.1588C92.3427 214 89.6421 215.119 87.6509 217.11C85.6597 219.101 84.541 221.802 84.541 224.618V246.209H160.26Z" fill="white"/>
<path d="M159.13 300.955H84.541C82.0106 300.955 79.5838 299.95 77.7945 298.16C76.0052 296.371 75 293.944 75 291.414C75 288.883 76.0052 286.457 77.7945 284.667C79.5838 282.878 82.0106 281.873 84.541 281.873H159.13C161.66 281.873 164.087 282.878 165.876 284.667C167.665 286.457 168.671 288.883 168.671 291.414C168.671 293.944 167.665 296.371 165.876 298.16C164.087 299.95 161.66 300.955 159.13 300.955Z" fill="#CCCCCC"/>
</svg>
