<svg width="487" height="769" viewBox="0 0 487 769" fill="none" xmlns="http://www.w3.org/2000/svg">
<path d="M30.3366 752.5H30.2716C28.0181 752.497 25.8575 751.601 24.264 750.008C22.6705 748.414 21.7742 746.254 21.7716 744V245C21.7742 242.746 22.6705 240.586 24.264 238.992C25.8575 237.399 28.0181 236.503 30.2716 236.5H450.272C452.525 236.503 454.686 237.399 456.279 238.992C457.873 240.586 458.769 242.746 458.772 245V633C458.769 635.242 457.882 637.393 456.303 638.984C454.723 640.576 452.58 641.48 450.338 641.5L30.3366 752.5Z" fill="#F2F2F2"/>
<path d="M340.772 166H145.772V53C145.774 50.6139 146.723 48.3263 148.411 46.6391C150.098 44.9518 152.386 44.0027 154.772 44H331.772C334.158 44.0027 336.445 44.9518 338.133 46.6391C339.82 48.3263 340.769 50.6139 340.772 53V166ZM147.772 164H338.772V53C338.77 51.1441 338.031 49.3649 336.719 48.0526C335.407 46.7402 333.628 46.0021 331.772 46H154.772C152.916 46.0021 151.136 46.7402 149.824 48.0526C148.512 49.3649 147.774 51.1441 147.772 53V164Z" fill="#3F3D56"/>
<path d="M201.272 87H285.272C287.393 87 289.428 87.8429 290.929 89.3431C292.429 90.8434 293.272 92.8783 293.272 95V215H193.272V95C193.272 92.8783 194.115 90.8434 195.615 89.3431C197.115 87.8429 199.15 87 201.272 87Z" fill="#E6E6E6"/>
<path d="M217.772 46H176.772V5C176.773 3.67438 177.3 2.40349 178.238 1.46614C179.175 0.528787 180.446 0.00151655 181.772 0H212.772C214.097 0.00151655 215.368 0.528787 216.305 1.46614C217.243 2.40349 217.77 3.67438 217.772 5V46ZM178.772 44H215.772V5C215.771 4.20462 215.454 3.44206 214.892 2.87964C214.33 2.31722 213.567 2.00087 212.772 2H181.772C180.976 2.00087 180.214 2.31722 179.651 2.87964C179.089 3.44206 178.773 4.20462 178.772 5V44Z" fill="#3F3D56"/>
<path d="M49.0314 174L49.7716 175.46C50.0997 176.09 50.2712 176.79 50.2716 177.5V217H85.2716V177.5C85.2721 176.79 85.4436 176.09 85.7716 175.46L86.5119 174H49.0314ZM83.2716 177.5V215H52.2716V177.5C52.2722 176.995 52.2117 176.491 52.0915 176H83.4518C83.3316 176.491 83.2711 176.995 83.2716 177.5ZM93.0314 174L93.7716 175.46C94.0997 176.09 94.2712 176.79 94.2716 177.5V217H129.272V177.5C129.272 176.79 129.444 176.09 129.772 175.46L130.512 174H93.0314ZM127.272 177.5V215H96.2716V177.5C96.2722 176.995 96.2117 176.491 96.0915 176H127.452C127.332 176.491 127.271 176.995 127.272 177.5ZM137.031 174L137.772 175.46C138.1 176.09 138.271 176.79 138.272 177.5V217H173.272V177.5C173.272 176.79 173.444 176.09 173.772 175.46L174.512 174H137.031ZM171.272 177.5V215H140.272V177.5C140.272 176.995 140.212 176.491 140.091 176H171.452C171.332 176.491 171.271 176.995 171.272 177.5ZM181.031 174L181.772 175.46C182.1 176.09 182.271 176.79 182.272 177.5V217H217.272V177.5C217.272 176.79 217.444 176.09 217.772 175.46L218.512 174H181.031ZM215.272 177.5V215H184.272V177.5C184.272 176.995 184.212 176.491 184.091 176H215.452C215.332 176.491 215.271 176.995 215.272 177.5ZM225.031 174L225.772 175.46C226.1 176.09 226.271 176.79 226.272 177.5V217H261.272V177.5C261.272 176.79 261.444 176.09 261.772 175.46L262.512 174H225.031ZM259.272 177.5V215H228.272V177.5C228.272 176.995 228.212 176.491 228.091 176H259.452C259.332 176.491 259.271 176.995 259.272 177.5ZM269.031 174L269.772 175.46C270.1 176.09 270.271 176.79 270.272 177.5V217H305.272V177.5C305.272 176.79 305.444 176.09 305.772 175.46L306.512 174H269.031ZM303.272 177.5V215H272.272V177.5C272.272 176.995 272.212 176.491 272.091 176H303.452C303.332 176.491 303.271 176.995 303.272 177.5ZM313.031 174L313.772 175.46C314.1 176.09 314.271 176.79 314.272 177.5V217H349.272V177.5C349.272 176.79 349.444 176.09 349.772 175.46L350.512 174H313.031ZM347.272 177.5V215H316.272V177.5C316.272 176.995 316.212 176.491 316.091 176H347.452C347.332 176.491 347.271 176.995 347.272 177.5ZM357.031 174L357.772 175.46C358.1 176.09 358.271 176.79 358.272 177.5V217H393.272V177.5C393.272 176.79 393.444 176.09 393.772 175.46L394.512 174H357.031ZM391.272 177.5V215H360.272V177.5C360.272 176.995 360.212 176.491 360.091 176H391.452C391.332 176.491 391.271 176.995 391.272 177.5ZM401.031 174L401.772 175.46C402.1 176.09 402.271 176.79 402.272 177.5V217H437.272V177.5C437.272 176.79 437.444 176.09 437.772 175.46L438.512 174H401.031ZM435.272 177.5V215H404.272V177.5C404.272 176.995 404.212 176.491 404.091 176H435.452C435.332 176.491 435.271 176.995 435.272 177.5ZM401.031 174L401.772 175.46C402.1 176.09 402.271 176.79 402.272 177.5V217H437.272V177.5C437.272 176.79 437.444 176.09 437.772 175.46L438.512 174H401.031ZM435.272 177.5V215H404.272V177.5C404.272 176.995 404.212 176.491 404.091 176H435.452C435.332 176.491 435.271 176.995 435.272 177.5ZM357.031 174L357.772 175.46C358.1 176.09 358.271 176.79 358.272 177.5V217H393.272V177.5C393.272 176.79 393.444 176.09 393.772 175.46L394.512 174H357.031ZM391.272 177.5V215H360.272V177.5C360.272 176.995 360.212 176.491 360.091 176H391.452C391.332 176.491 391.271 176.995 391.272 177.5ZM313.031 174L313.772 175.46C314.1 176.09 314.271 176.79 314.272 177.5V217H349.272V177.5C349.272 176.79 349.444 176.09 349.772 175.46L350.512 174H313.031ZM347.272 177.5V215H316.272V177.5C316.272 176.995 316.212 176.491 316.091 176H347.452C347.332 176.491 347.271 176.995 347.272 177.5ZM269.031 174L269.772 175.46C270.1 176.09 270.271 176.79 270.272 177.5V217H305.272V177.5C305.272 176.79 305.444 176.09 305.772 175.46L306.512 174H269.031ZM303.272 177.5V215H272.272V177.5C272.272 176.995 272.212 176.491 272.091 176H303.452C303.332 176.491 303.271 176.995 303.272 177.5ZM225.031 174L225.772 175.46C226.1 176.09 226.271 176.79 226.272 177.5V217H261.272V177.5C261.272 176.79 261.444 176.09 261.772 175.46L262.512 174H225.031ZM259.272 177.5V215H228.272V177.5C228.272 176.995 228.212 176.491 228.091 176H259.452C259.332 176.491 259.271 176.995 259.272 177.5ZM181.031 174L181.772 175.46C182.1 176.09 182.271 176.79 182.272 177.5V217H217.272V177.5C217.272 176.79 217.444 176.09 217.772 175.46L218.512 174H181.031ZM215.272 177.5V215H184.272V177.5C184.272 176.995 184.212 176.491 184.091 176H215.452C215.332 176.491 215.271 176.995 215.272 177.5ZM137.031 174L137.772 175.46C138.1 176.09 138.271 176.79 138.272 177.5V217H173.272V177.5C173.272 176.79 173.444 176.09 173.772 175.46L174.512 174H137.031ZM171.272 177.5V215H140.272V177.5C140.272 176.995 140.212 176.491 140.091 176H171.452C171.332 176.491 171.271 176.995 171.272 177.5ZM93.0314 174L93.7716 175.46C94.0997 176.09 94.2712 176.79 94.2716 177.5V217H129.272V177.5C129.272 176.79 129.444 176.09 129.772 175.46L130.512 174H93.0314ZM127.272 177.5V215H96.2716V177.5C96.2722 176.995 96.2117 176.491 96.0915 176H127.452C127.332 176.491 127.271 176.995 127.272 177.5ZM49.0314 174L49.7716 175.46C50.0997 176.09 50.2712 176.79 50.2716 177.5V217H85.2716V177.5C85.2721 176.79 85.4436 176.09 85.7716 175.46L86.5119 174H49.0314ZM83.2716 177.5V215H52.2716V177.5C52.2722 176.995 52.2117 176.491 52.0915 176H83.4518C83.3316 176.491 83.2711 176.995 83.2716 177.5ZM401.031 174L401.772 175.46C402.1 176.09 402.271 176.79 402.272 177.5V217H437.272V177.5C437.272 176.79 437.444 176.09 437.772 175.46L438.512 174H401.031ZM435.272 177.5V215H404.272V177.5C404.272 176.995 404.212 176.491 404.091 176H435.452C435.332 176.491 435.271 176.995 435.272 177.5ZM357.031 174L357.772 175.46C358.1 176.09 358.271 176.79 358.272 177.5V217H393.272V177.5C393.272 176.79 393.444 176.09 393.772 175.46L394.512 174H357.031ZM391.272 177.5V215H360.272V177.5C360.272 176.995 360.212 176.491 360.091 176H391.452C391.332 176.491 391.271 176.995 391.272 177.5ZM313.031 174L313.772 175.46C314.1 176.09 314.271 176.79 314.272 177.5V217H349.272V177.5C349.272 176.79 349.444 176.09 349.772 175.46L350.512 174H313.031ZM347.272 177.5V215H316.272V177.5C316.272 176.995 316.212 176.491 316.091 176H347.452C347.332 176.491 347.271 176.995 347.272 177.5ZM269.031 174L269.772 175.46C270.1 176.09 270.271 176.79 270.272 177.5V217H305.272V177.5C305.272 176.79 305.444 176.09 305.772 175.46L306.512 174H269.031ZM303.272 177.5V215H272.272V177.5C272.272 176.995 272.212 176.491 272.091 176H303.452C303.332 176.491 303.271 176.995 303.272 177.5ZM225.031 174L225.772 175.46C226.1 176.09 226.271 176.79 226.272 177.5V217H261.272V177.5C261.272 176.79 261.444 176.09 261.772 175.46L262.512 174H225.031ZM259.272 177.5V215H228.272V177.5C228.272 176.995 228.212 176.491 228.091 176H259.452C259.332 176.491 259.271 176.995 259.272 177.5ZM181.031 174L181.772 175.46C182.1 176.09 182.271 176.79 182.272 177.5V217H217.272V177.5C217.272 176.79 217.444 176.09 217.772 175.46L218.512 174H181.031ZM215.272 177.5V215H184.272V177.5C184.272 176.995 184.212 176.491 184.091 176H215.452C215.332 176.491 215.271 176.995 215.272 177.5ZM137.031 174L137.772 175.46C138.1 176.09 138.271 176.79 138.272 177.5V217H173.272V177.5C173.272 176.79 173.444 176.09 173.772 175.46L174.512 174H137.031ZM171.272 177.5V215H140.272V177.5C140.272 176.995 140.212 176.491 140.091 176H171.452C171.332 176.491 171.271 176.995 171.272 177.5ZM93.0314 174L93.7716 175.46C94.0997 176.09 94.2712 176.79 94.2716 177.5V217H129.272V177.5C129.272 176.79 129.444 176.09 129.772 175.46L130.512 174H93.0314ZM127.272 177.5V215H96.2716V177.5C96.2722 176.995 96.2117 176.491 96.0915 176H127.452C127.332 176.491 127.271 176.995 127.272 177.5ZM49.0314 174L49.7716 175.46C50.0997 176.09 50.2712 176.79 50.2716 177.5V217H85.2716V177.5C85.2721 176.79 85.4436 176.09 85.7716 175.46L86.5119 174H49.0314ZM83.2716 177.5V215H52.2716V177.5C52.2722 176.995 52.2117 176.491 52.0915 176H83.4518C83.3316 176.491 83.2711 176.995 83.2716 177.5ZM401.031 174L401.772 175.46C402.1 176.09 402.271 176.79 402.272 177.5V217H437.272V177.5C437.272 176.79 437.444 176.09 437.772 175.46L438.512 174H401.031ZM435.272 177.5V215H404.272V177.5C404.272 176.995 404.212 176.491 404.091 176H435.452C435.332 176.491 435.271 176.995 435.272 177.5ZM357.031 174L357.772 175.46C358.1 176.09 358.271 176.79 358.272 177.5V217H393.272V177.5C393.272 176.79 393.444 176.09 393.772 175.46L394.512 174H357.031ZM391.272 177.5V215H360.272V177.5C360.272 176.995 360.212 176.491 360.091 176H391.452C391.332 176.491 391.271 176.995 391.272 177.5ZM313.031 174L313.772 175.46C314.1 176.09 314.271 176.79 314.272 177.5V217H349.272V177.5C349.272 176.79 349.444 176.09 349.772 175.46L350.512 174H313.031ZM347.272 177.5V215H316.272V177.5C316.272 176.995 316.212 176.491 316.091 176H347.452C347.332 176.491 347.271 176.995 347.272 177.5ZM269.031 174L269.772 175.46C270.1 176.09 270.271 176.79 270.272 177.5V217H305.272V177.5C305.272 176.79 305.444 176.09 305.772 175.46L306.512 174H269.031ZM303.272 177.5V215H272.272V177.5C272.272 176.995 272.212 176.491 272.091 176H303.452C303.332 176.491 303.271 176.995 303.272 177.5ZM225.031 174L225.772 175.46C226.1 176.09 226.271 176.79 226.272 177.5V217H261.272V177.5C261.272 176.79 261.444 176.09 261.772 175.46L262.512 174H225.031ZM259.272 177.5V215H228.272V177.5C228.272 176.995 228.212 176.491 228.091 176H259.452C259.332 176.491 259.271 176.995 259.272 177.5ZM181.031 174L181.772 175.46C182.1 176.09 182.271 176.79 182.272 177.5V217H217.272V177.5C217.272 176.79 217.444 176.09 217.772 175.46L218.512 174H181.031ZM215.272 177.5V215H184.272V177.5C184.272 176.995 184.212 176.491 184.091 176H215.452C215.332 176.491 215.271 176.995 215.272 177.5ZM137.031 174L137.772 175.46C138.1 176.09 138.271 176.79 138.272 177.5V217H173.272V177.5C173.272 176.79 173.444 176.09 173.772 175.46L174.512 174H137.031ZM171.272 177.5V215H140.272V177.5C140.272 176.995 140.212 176.491 140.091 176H171.452C171.332 176.491 171.271 176.995 171.272 177.5ZM93.0314 174L93.7716 175.46C94.0997 176.09 94.2712 176.79 94.2716 177.5V217H129.272V177.5C129.272 176.79 129.444 176.09 129.772 175.46L130.512 174H93.0314ZM127.272 177.5V215H96.2716V177.5C96.2722 176.995 96.2117 176.491 96.0915 176H127.452C127.332 176.491 127.271 176.995 127.272 177.5ZM49.0314 174L49.7716 175.46C50.0997 176.09 50.2712 176.79 50.2716 177.5V217H85.2716V177.5C85.2721 176.79 85.4436 176.09 85.7716 175.46L86.5119 174H49.0314ZM83.2716 177.5V215H52.2716V177.5C52.2722 176.995 52.2117 176.491 52.0915 176H83.4518C83.3316 176.491 83.2711 176.995 83.2716 177.5ZM401.031 174L401.772 175.46C402.1 176.09 402.271 176.79 402.272 177.5V217H437.272V177.5C437.272 176.79 437.444 176.09 437.772 175.46L438.512 174H401.031ZM435.272 177.5V215H404.272V177.5C404.272 176.995 404.212 176.491 404.091 176H435.452C435.332 176.491 435.271 176.995 435.272 177.5ZM357.031 174L357.772 175.46C358.1 176.09 358.271 176.79 358.272 177.5V217H393.272V177.5C393.272 176.79 393.444 176.09 393.772 175.46L394.512 174H357.031ZM391.272 177.5V215H360.272V177.5C360.272 176.995 360.212 176.491 360.091 176H391.452C391.332 176.491 391.271 176.995 391.272 177.5ZM313.031 174L313.772 175.46C314.1 176.09 314.271 176.79 314.272 177.5V217H349.272V177.5C349.272 176.79 349.444 176.09 349.772 175.46L350.512 174H313.031ZM347.272 177.5V215H316.272V177.5C316.272 176.995 316.212 176.491 316.091 176H347.452C347.332 176.491 347.271 176.995 347.272 177.5ZM269.031 174L269.772 175.46C270.1 176.09 270.271 176.79 270.272 177.5V217H305.272V177.5C305.272 176.79 305.444 176.09 305.772 175.46L306.512 174H269.031ZM303.272 177.5V215H272.272V177.5C272.272 176.995 272.212 176.491 272.091 176H303.452C303.332 176.491 303.271 176.995 303.272 177.5ZM225.031 174L225.772 175.46C226.1 176.09 226.271 176.79 226.272 177.5V217H261.272V177.5C261.272 176.79 261.444 176.09 261.772 175.46L262.512 174H225.031ZM259.272 177.5V215H228.272V177.5C228.272 176.995 228.212 176.491 228.091 176H259.452C259.332 176.491 259.271 176.995 259.272 177.5ZM181.031 174L181.772 175.46C182.1 176.09 182.271 176.79 182.272 177.5V217H217.272V177.5C217.272 176.79 217.444 176.09 217.772 175.46L218.512 174H181.031ZM215.272 177.5V215H184.272V177.5C184.272 176.995 184.212 176.491 184.091 176H215.452C215.332 176.491 215.271 176.995 215.272 177.5ZM137.031 174L137.772 175.46C138.1 176.09 138.271 176.79 138.272 177.5V217H173.272V177.5C173.272 176.79 173.444 176.09 173.772 175.46L174.512 174H137.031ZM171.272 177.5V215H140.272V177.5C140.272 176.995 140.212 176.491 140.091 176H171.452C171.332 176.491 171.271 176.995 171.272 177.5ZM93.0314 174L93.7716 175.46C94.0997 176.09 94.2712 176.79 94.2716 177.5V217H129.272V177.5C129.272 176.79 129.444 176.09 129.772 175.46L130.512 174H93.0314ZM127.272 177.5V215H96.2716V177.5C96.2722 176.995 96.2117 176.491 96.0915 176H127.452C127.332 176.491 127.271 176.995 127.272 177.5ZM49.0314 174L49.7716 175.46C50.0997 176.09 50.2712 176.79 50.2716 177.5V217H85.2716V177.5C85.2721 176.79 85.4436 176.09 85.7716 175.46L86.5119 174H49.0314ZM83.2716 177.5V215H52.2716V177.5C52.2722 176.995 52.2117 176.491 52.0915 176H83.4518C83.3316 176.491 83.2711 176.995 83.2716 177.5ZM401.031 174L401.772 175.46C402.1 176.09 402.271 176.79 402.272 177.5V217H437.272V177.5C437.272 176.79 437.444 176.09 437.772 175.46L438.512 174H401.031ZM435.272 177.5V215H404.272V177.5C404.272 176.995 404.212 176.491 404.091 176H435.452C435.332 176.491 435.271 176.995 435.272 177.5ZM357.772 175.46C358.1 176.09 358.271 176.79 358.272 177.5V217H393.272V177.5C393.272 176.79 393.444 176.09 393.772 175.46L394.512 174H357.031L357.772 175.46ZM391.452 176C391.332 176.491 391.271 176.995 391.272 177.5V215H360.272V177.5C360.272 176.995 360.212 176.491 360.091 176H391.452ZM313.772 175.46C314.1 176.09 314.271 176.79 314.272 177.5V217H349.272V177.5C349.272 176.79 349.444 176.09 349.772 175.46L350.512 174H313.031L313.772 175.46ZM347.452 176C347.332 176.491 347.271 176.995 347.272 177.5V215H316.272V177.5C316.272 176.995 316.212 176.491 316.091 176H347.452ZM269.772 175.46C270.1 176.09 270.271 176.79 270.272 177.5V217H305.272V177.5C305.272 176.79 305.444 176.09 305.772 175.46L306.512 174H269.031L269.772 175.46ZM303.452 176C303.332 176.491 303.271 176.995 303.272 177.5V215H272.272V177.5C272.272 176.995 272.212 176.491 272.091 176H303.452ZM225.772 175.46C226.1 176.09 226.271 176.79 226.272 177.5V217H261.272V177.5C261.272 176.79 261.444 176.09 261.772 175.46L262.512 174H225.031L225.772 175.46ZM259.452 176C259.332 176.491 259.271 176.995 259.272 177.5V215H228.272V177.5C228.272 176.995 228.212 176.491 228.091 176H259.452ZM181.772 175.46C182.1 176.09 182.271 176.79 182.272 177.5V217H217.272V177.5C217.272 176.79 217.444 176.09 217.772 175.46L218.512 174H181.031L181.772 175.46ZM215.452 176C215.332 176.491 215.271 176.995 215.272 177.5V215H184.272V177.5C184.272 176.995 184.212 176.491 184.091 176H215.452ZM137.772 175.46C138.1 176.09 138.271 176.79 138.272 177.5V217H173.272V177.5C173.272 176.79 173.444 176.09 173.772 175.46L174.512 174H137.031L137.772 175.46ZM171.452 176C171.332 176.491 171.271 176.995 171.272 177.5V215H140.272V177.5C140.272 176.995 140.212 176.491 140.091 176H171.452ZM93.7716 175.46C94.0997 176.09 94.2712 176.79 94.2716 177.5V217H129.272V177.5C129.272 176.79 129.444 176.09 129.772 175.46L130.512 174H93.0314L93.7716 175.46ZM127.452 176C127.332 176.491 127.271 176.995 127.272 177.5V215H96.2716V177.5C96.2722 176.995 96.2117 176.491 96.0915 176H127.452ZM49.7716 175.46C50.0997 176.09 50.2712 176.79 50.2716 177.5V217H85.2716V177.5C85.2721 176.79 85.4436 176.09 85.7716 175.46L86.5119 174H49.0314L49.7716 175.46ZM83.4518 176C83.3316 176.491 83.2711 176.995 83.2716 177.5V215H52.2716V177.5C52.2722 176.995 52.2117 176.491 52.0915 176H83.4518ZM401.772 175.46C402.1 176.09 402.271 176.79 402.272 177.5V217H437.272V177.5C437.272 176.79 437.444 176.09 437.772 175.46L438.512 174H401.031L401.772 175.46ZM435.452 176C435.332 176.491 435.271 176.995 435.272 177.5V215H404.272V177.5C404.272 176.995 404.212 176.491 404.091 176H435.452ZM357.772 175.46C358.1 176.09 358.271 176.79 358.272 177.5V217H393.272V177.5C393.272 176.79 393.444 176.09 393.772 175.46L394.512 174H357.031L357.772 175.46ZM391.452 176C391.332 176.491 391.271 176.995 391.272 177.5V215H360.272V177.5C360.272 176.995 360.212 176.491 360.091 176H391.452ZM313.772 175.46C314.1 176.09 314.271 176.79 314.272 177.5V217H349.272V177.5C349.272 176.79 349.444 176.09 349.772 175.46L350.512 174H313.031L313.772 175.46ZM347.452 176C347.332 176.491 347.271 176.995 347.272 177.5V215H316.272V177.5C316.272 176.995 316.212 176.491 316.091 176H347.452ZM269.772 175.46C270.1 176.09 270.271 176.79 270.272 177.5V217H305.272V177.5C305.272 176.79 305.444 176.09 305.772 175.46L306.512 174H269.031L269.772 175.46ZM303.452 176C303.332 176.491 303.271 176.995 303.272 177.5V215H272.272V177.5C272.272 176.995 272.212 176.491 272.091 176H303.452ZM225.772 175.46C226.1 176.09 226.271 176.79 226.272 177.5V217H261.272V177.5C261.272 176.79 261.444 176.09 261.772 175.46L262.512 174H225.031L225.772 175.46ZM259.452 176C259.332 176.491 259.271 176.995 259.272 177.5V215H228.272V177.5C228.272 176.995 228.212 176.491 228.091 176H259.452ZM181.772 175.46C182.1 176.09 182.271 176.79 182.272 177.5V217H217.272V177.5C217.272 176.79 217.444 176.09 217.772 175.46L218.512 174H181.031L181.772 175.46ZM215.452 176C215.332 176.491 215.271 176.995 215.272 177.5V215H184.272V177.5C184.272 176.995 184.212 176.491 184.091 176H215.452ZM137.772 175.46C138.1 176.09 138.271 176.79 138.272 177.5V217H173.272V177.5C173.272 176.79 173.444 176.09 173.772 175.46L174.512 174H137.031L137.772 175.46ZM171.452 176C171.332 176.491 171.271 176.995 171.272 177.5V215H140.272V177.5C140.272 176.995 140.212 176.491 140.091 176H171.452ZM93.7716 175.46C94.0997 176.09 94.2712 176.79 94.2716 177.5V217H129.272V177.5C129.272 176.79 129.444 176.09 129.772 175.46L130.512 174H93.0314L93.7716 175.46ZM127.452 176C127.332 176.491 127.271 176.995 127.272 177.5V215H96.2716V177.5C96.2722 176.995 96.2117 176.491 96.0915 176H127.452ZM49.7716 175.46C50.0997 176.09 50.2712 176.79 50.2716 177.5V217H85.2716V177.5C85.2721 176.79 85.4436 176.09 85.7716 175.46L86.5119 174H49.0314L49.7716 175.46ZM83.4518 176C83.3316 176.491 83.2711 176.995 83.2716 177.5V215H52.2716V177.5C52.2722 176.995 52.2117 176.491 52.0915 176H83.4518ZM477.272 223H465.352C464.694 220.7 463.307 218.675 461.398 217.232C459.49 215.789 457.164 215.006 454.772 215H448.272V177.5C448.274 176.695 448.121 175.897 447.821 175.15C448.955 174.483 449.837 173.461 450.331 172.243C450.826 171.025 450.906 169.677 450.559 168.409C450.212 167.141 449.458 166.022 448.412 165.225C447.366 164.428 446.087 163.998 444.772 164H42.7716C41.4567 163.998 40.1775 164.428 39.1315 165.225C38.0855 166.022 37.3308 167.141 36.9839 168.409C36.637 169.677 36.7171 171.025 37.2119 172.243C37.7067 173.461 38.5888 174.483 39.7219 175.15C39.4219 175.897 39.269 176.695 39.2716 177.5V215H32.7716C30.3791 215.006 28.0533 215.789 26.1449 217.232C24.2365 218.675 22.849 220.7 22.1916 223H9.27164C6.88579 223.004 4.5987 223.953 2.91165 225.64C1.2246 227.327 0.275226 229.614 0.271637 232V760C0.27681 762.385 1.22668 764.672 2.91339 766.358C4.6001 768.045 6.88628 768.995 9.27164 769H477.272C479.658 768.997 481.945 768.047 483.632 766.36C485.319 764.673 486.268 762.386 486.272 760V232C486.268 229.614 485.319 227.327 483.632 225.64C481.945 223.953 479.658 223.004 477.272 223ZM484.272 760C484.27 761.429 483.831 762.823 483.014 763.996C482.198 765.169 481.042 766.063 479.702 766.56C478.926 766.855 478.102 767.005 477.272 767H9.27164C8.44136 767.005 7.61743 766.855 6.84149 766.56C5.50158 766.063 4.34565 765.169 3.52881 763.996C2.71197 762.823 2.27329 761.429 2.27164 760V232C2.2737 230.144 3.01188 228.365 4.32419 227.053C5.6365 225.74 7.41575 225.002 9.27164 225H23.7917L23.9518 224.2C24.3723 222.17 25.4784 220.346 27.0844 219.035C28.6903 217.724 30.6985 217.006 32.7716 217H41.2716V177.5C41.2719 176.686 41.4932 175.888 41.9118 175.19L42.5314 174.16L41.4015 173.74C40.5185 173.42 39.7766 172.799 39.3067 171.985C38.8368 171.172 38.6689 170.219 38.8327 169.294C38.9964 168.369 39.4812 167.532 40.2018 166.929C40.9223 166.327 41.8324 165.998 42.7716 166H444.772C445.711 165.998 446.621 166.326 447.341 166.929C448.062 167.532 448.547 168.369 448.711 169.294C448.874 170.219 448.706 171.172 448.237 171.985C447.767 172.799 447.025 173.42 446.142 173.74L445.012 174.16L445.631 175.19C446.05 175.888 446.272 176.686 446.272 177.5V217H454.772C456.845 217.006 458.853 217.724 460.459 219.035C462.065 220.346 463.171 222.17 463.591 224.2L463.752 225H477.272C479.128 225.002 480.907 225.74 482.219 227.053C483.531 228.365 484.27 230.144 484.272 232L484.272 760ZM49.0314 174L49.7716 175.46C50.0997 176.09 50.2712 176.79 50.2716 177.5V217H85.2716V177.5C85.2721 176.79 85.4436 176.09 85.7716 175.46L86.5119 174H49.0314ZM83.2716 177.5V215H52.2716V177.5C52.2722 176.995 52.2117 176.491 52.0915 176H83.4518C83.3316 176.491 83.2711 176.995 83.2716 177.5ZM93.0314 174L93.7716 175.46C94.0997 176.09 94.2712 176.79 94.2716 177.5V217H129.272V177.5C129.272 176.79 129.444 176.09 129.772 175.46L130.512 174H93.0314ZM127.272 177.5V215H96.2716V177.5C96.2722 176.995 96.2117 176.491 96.0915 176H127.452C127.332 176.491 127.271 176.995 127.272 177.5ZM137.031 174L137.772 175.46C138.1 176.09 138.271 176.79 138.272 177.5V217H173.272V177.5C173.272 176.79 173.444 176.09 173.772 175.46L174.512 174H137.031ZM171.272 177.5V215H140.272V177.5C140.272 176.995 140.212 176.491 140.091 176H171.452C171.332 176.491 171.271 176.995 171.272 177.5ZM181.031 174L181.772 175.46C182.1 176.09 182.271 176.79 182.272 177.5V217H217.272V177.5C217.272 176.79 217.444 176.09 217.772 175.46L218.512 174H181.031ZM215.272 177.5V215H184.272V177.5C184.272 176.995 184.212 176.491 184.091 176H215.452C215.332 176.491 215.271 176.995 215.272 177.5ZM225.031 174L225.772 175.46C226.1 176.09 226.271 176.79 226.272 177.5V217H261.272V177.5C261.272 176.79 261.444 176.09 261.772 175.46L262.512 174H225.031ZM259.272 177.5V215H228.272V177.5C228.272 176.995 228.212 176.491 228.091 176H259.452C259.332 176.491 259.271 176.995 259.272 177.5ZM269.031 174L269.772 175.46C270.1 176.09 270.271 176.79 270.272 177.5V217H305.272V177.5C305.272 176.79 305.444 176.09 305.772 175.46L306.512 174H269.031ZM303.272 177.5V215H272.272V177.5C272.272 176.995 272.212 176.491 272.091 176H303.452C303.332 176.491 303.271 176.995 303.272 177.5ZM313.031 174L313.772 175.46C314.1 176.09 314.271 176.79 314.272 177.5V217H349.272V177.5C349.272 176.79 349.444 176.09 349.772 175.46L350.512 174H313.031ZM347.272 177.5V215H316.272V177.5C316.272 176.995 316.212 176.491 316.091 176H347.452C347.332 176.491 347.271 176.995 347.272 177.5ZM357.031 174L357.772 175.46C358.1 176.09 358.271 176.79 358.272 177.5V217H393.272V177.5C393.272 176.79 393.444 176.09 393.772 175.46L394.512 174H357.031ZM391.272 177.5V215H360.272V177.5C360.272 176.995 360.212 176.491 360.091 176H391.452C391.332 176.491 391.271 176.995 391.272 177.5ZM401.031 174L401.772 175.46C402.1 176.09 402.271 176.79 402.272 177.5V217H437.272V177.5C437.272 176.79 437.444 176.09 437.772 175.46L438.512 174H401.031ZM435.272 177.5V215H404.272V177.5C404.272 176.995 404.212 176.491 404.091 176H435.452C435.332 176.491 435.271 176.995 435.272 177.5ZM49.0314 174L49.7716 175.46C50.0997 176.09 50.2712 176.79 50.2716 177.5V217H85.2716V177.5C85.2721 176.79 85.4436 176.09 85.7716 175.46L86.5119 174H49.0314ZM83.2716 177.5V215H52.2716V177.5C52.2722 176.995 52.2117 176.491 52.0915 176H83.4518C83.3316 176.491 83.2711 176.995 83.2716 177.5ZM93.0314 174L93.7716 175.46C94.0997 176.09 94.2712 176.79 94.2716 177.5V217H129.272V177.5C129.272 176.79 129.444 176.09 129.772 175.46L130.512 174H93.0314ZM127.272 177.5V215H96.2716V177.5C96.2722 176.995 96.2117 176.491 96.0915 176H127.452C127.332 176.491 127.271 176.995 127.272 177.5ZM137.031 174L137.772 175.46C138.1 176.09 138.271 176.79 138.272 177.5V217H173.272V177.5C173.272 176.79 173.444 176.09 173.772 175.46L174.512 174H137.031ZM171.272 177.5V215H140.272V177.5C140.272 176.995 140.212 176.491 140.091 176H171.452C171.332 176.491 171.271 176.995 171.272 177.5ZM181.031 174L181.772 175.46C182.1 176.09 182.271 176.79 182.272 177.5V217H217.272V177.5C217.272 176.79 217.444 176.09 217.772 175.46L218.512 174H181.031ZM215.272 177.5V215H184.272V177.5C184.272 176.995 184.212 176.491 184.091 176H215.452C215.332 176.491 215.271 176.995 215.272 177.5ZM225.031 174L225.772 175.46C226.1 176.09 226.271 176.79 226.272 177.5V217H261.272V177.5C261.272 176.79 261.444 176.09 261.772 175.46L262.512 174H225.031ZM259.272 177.5V215H228.272V177.5C228.272 176.995 228.212 176.491 228.091 176H259.452C259.332 176.491 259.271 176.995 259.272 177.5ZM269.031 174L269.772 175.46C270.1 176.09 270.271 176.79 270.272 177.5V217H305.272V177.5C305.272 176.79 305.444 176.09 305.772 175.46L306.512 174H269.031ZM303.272 177.5V215H272.272V177.5C272.272 176.995 272.212 176.491 272.091 176H303.452C303.332 176.491 303.271 176.995 303.272 177.5ZM313.031 174L313.772 175.46C314.1 176.09 314.271 176.79 314.272 177.5V217H349.272V177.5C349.272 176.79 349.444 176.09 349.772 175.46L350.512 174H313.031ZM347.272 177.5V215H316.272V177.5C316.272 176.995 316.212 176.491 316.091 176H347.452C347.332 176.491 347.271 176.995 347.272 177.5ZM357.031 174L357.772 175.46C358.1 176.09 358.271 176.79 358.272 177.5V217H393.272V177.5C393.272 176.79 393.444 176.09 393.772 175.46L394.512 174H357.031ZM391.272 177.5V215H360.272V177.5C360.272 176.995 360.212 176.491 360.091 176H391.452C391.332 176.491 391.271 176.995 391.272 177.5ZM401.031 174L401.772 175.46C402.1 176.09 402.271 176.79 402.272 177.5V217H437.272V177.5C437.272 176.79 437.444 176.09 437.772 175.46L438.512 174H401.031ZM435.272 177.5V215H404.272V177.5C404.272 176.995 404.212 176.491 404.091 176H435.452C435.332 176.491 435.271 176.995 435.272 177.5ZM49.0314 174L49.7716 175.46C50.0997 176.09 50.2712 176.79 50.2716 177.5V217H85.2716V177.5C85.2721 176.79 85.4436 176.09 85.7716 175.46L86.5119 174H49.0314ZM83.2716 177.5V215H52.2716V177.5C52.2722 176.995 52.2117 176.491 52.0915 176H83.4518C83.3316 176.491 83.2711 176.995 83.2716 177.5ZM93.0314 174L93.7716 175.46C94.0997 176.09 94.2712 176.79 94.2716 177.5V217H129.272V177.5C129.272 176.79 129.444 176.09 129.772 175.46L130.512 174H93.0314ZM127.272 177.5V215H96.2716V177.5C96.2722 176.995 96.2117 176.491 96.0915 176H127.452C127.332 176.491 127.271 176.995 127.272 177.5ZM137.031 174L137.772 175.46C138.1 176.09 138.271 176.79 138.272 177.5V217H173.272V177.5C173.272 176.79 173.444 176.09 173.772 175.46L174.512 174H137.031ZM171.272 177.5V215H140.272V177.5C140.272 176.995 140.212 176.491 140.091 176H171.452C171.332 176.491 171.271 176.995 171.272 177.5ZM181.031 174L181.772 175.46C182.1 176.09 182.271 176.79 182.272 177.5V217H217.272V177.5C217.272 176.79 217.444 176.09 217.772 175.46L218.512 174H181.031ZM215.272 177.5V215H184.272V177.5C184.272 176.995 184.212 176.491 184.091 176H215.452C215.332 176.491 215.271 176.995 215.272 177.5ZM225.031 174L225.772 175.46C226.1 176.09 226.271 176.79 226.272 177.5V217H261.272V177.5C261.272 176.79 261.444 176.09 261.772 175.46L262.512 174H225.031ZM259.272 177.5V215H228.272V177.5C228.272 176.995 228.212 176.491 228.091 176H259.452C259.332 176.491 259.271 176.995 259.272 177.5ZM269.031 174L269.772 175.46C270.1 176.09 270.271 176.79 270.272 177.5V217H305.272V177.5C305.272 176.79 305.444 176.09 305.772 175.46L306.512 174H269.031ZM303.272 177.5V215H272.272V177.5C272.272 176.995 272.212 176.491 272.091 176H303.452C303.332 176.491 303.271 176.995 303.272 177.5ZM313.031 174L313.772 175.46C314.1 176.09 314.271 176.79 314.272 177.5V217H349.272V177.5C349.272 176.79 349.444 176.09 349.772 175.46L350.512 174H313.031ZM347.272 177.5V215H316.272V177.5C316.272 176.995 316.212 176.491 316.091 176H347.452C347.332 176.491 347.271 176.995 347.272 177.5ZM357.031 174L357.772 175.46C358.1 176.09 358.271 176.79 358.272 177.5V217H393.272V177.5C393.272 176.79 393.444 176.09 393.772 175.46L394.512 174H357.031ZM391.272 177.5V215H360.272V177.5C360.272 176.995 360.212 176.491 360.091 176H391.452C391.332 176.491 391.271 176.995 391.272 177.5ZM401.031 174L401.772 175.46C402.1 176.09 402.271 176.79 402.272 177.5V217H437.272V177.5C437.272 176.79 437.444 176.09 437.772 175.46L438.512 174H401.031ZM435.272 177.5V215H404.272V177.5C404.272 176.995 404.212 176.491 404.091 176H435.452C435.332 176.491 435.271 176.995 435.272 177.5ZM49.0314 174L49.7716 175.46C50.0997 176.09 50.2712 176.79 50.2716 177.5V217H85.2716V177.5C85.2721 176.79 85.4436 176.09 85.7716 175.46L86.5119 174H49.0314ZM83.2716 177.5V215H52.2716V177.5C52.2722 176.995 52.2117 176.491 52.0915 176H83.4518C83.3316 176.491 83.2711 176.995 83.2716 177.5ZM93.0314 174L93.7716 175.46C94.0997 176.09 94.2712 176.79 94.2716 177.5V217H129.272V177.5C129.272 176.79 129.444 176.09 129.772 175.46L130.512 174H93.0314ZM127.272 177.5V215H96.2716V177.5C96.2722 176.995 96.2117 176.491 96.0915 176H127.452C127.332 176.491 127.271 176.995 127.272 177.5ZM137.031 174L137.772 175.46C138.1 176.09 138.271 176.79 138.272 177.5V217H173.272V177.5C173.272 176.79 173.444 176.09 173.772 175.46L174.512 174H137.031ZM171.272 177.5V215H140.272V177.5C140.272 176.995 140.212 176.491 140.091 176H171.452C171.332 176.491 171.271 176.995 171.272 177.5ZM181.031 174L181.772 175.46C182.1 176.09 182.271 176.79 182.272 177.5V217H217.272V177.5C217.272 176.79 217.444 176.09 217.772 175.46L218.512 174H181.031ZM215.272 177.5V215H184.272V177.5C184.272 176.995 184.212 176.491 184.091 176H215.452C215.332 176.491 215.271 176.995 215.272 177.5ZM225.031 174L225.772 175.46C226.1 176.09 226.271 176.79 226.272 177.5V217H261.272V177.5C261.272 176.79 261.444 176.09 261.772 175.46L262.512 174H225.031ZM259.272 177.5V215H228.272V177.5C228.272 176.995 228.212 176.491 228.091 176H259.452C259.332 176.491 259.271 176.995 259.272 177.5ZM269.031 174L269.772 175.46C270.1 176.09 270.271 176.79 270.272 177.5V217H305.272V177.5C305.272 176.79 305.444 176.09 305.772 175.46L306.512 174H269.031ZM303.272 177.5V215H272.272V177.5C272.272 176.995 272.212 176.491 272.091 176H303.452C303.332 176.491 303.271 176.995 303.272 177.5ZM313.031 174L313.772 175.46C314.1 176.09 314.271 176.79 314.272 177.5V217H349.272V177.5C349.272 176.79 349.444 176.09 349.772 175.46L350.512 174H313.031ZM347.272 177.5V215H316.272V177.5C316.272 176.995 316.212 176.491 316.091 176H347.452C347.332 176.491 347.271 176.995 347.272 177.5ZM357.031 174L357.772 175.46C358.1 176.09 358.271 176.79 358.272 177.5V217H393.272V177.5C393.272 176.79 393.444 176.09 393.772 175.46L394.512 174H357.031ZM391.272 177.5V215H360.272V177.5C360.272 176.995 360.212 176.491 360.091 176H391.452C391.332 176.491 391.271 176.995 391.272 177.5ZM401.031 174L401.772 175.46C402.1 176.09 402.271 176.79 402.272 177.5V217H437.272V177.5C437.272 176.79 437.444 176.09 437.772 175.46L438.512 174H401.031ZM435.272 177.5V215H404.272V177.5C404.272 176.995 404.212 176.491 404.091 176H435.452C435.332 176.491 435.271 176.995 435.272 177.5Z" fill="#3F3D56"/>
<path d="M149.601 349H75.8581C74.305 348.998 72.816 348.38 71.7177 347.282C70.6195 346.184 70.0017 344.695 70 343.142V303.858C70.0017 302.305 70.6195 300.816 71.7177 299.718C72.816 298.62 74.305 298.002 75.8581 298H149.601C151.154 298.002 152.643 298.619 153.742 299.718C154.84 300.816 155.458 302.305 155.459 303.858V343.142C155.458 344.695 154.84 346.184 153.742 347.282C152.643 348.381 151.154 348.998 149.601 349V349Z" fill="white"/>
<path d="M280.143 349H206.4C204.847 348.998 203.358 348.38 202.26 347.282C201.161 346.184 200.544 344.695 200.542 343.142V303.858C200.544 302.305 201.161 300.816 202.26 299.718C203.358 298.62 204.847 298.002 206.4 298H280.143C281.696 298.002 283.185 298.619 284.284 299.718C285.382 300.816 286 302.305 286.001 303.858V343.142C286 344.695 285.382 346.184 284.284 347.282C283.185 348.38 281.696 348.998 280.143 349V349Z" fill="white"/>
<path d="M409.601 349H335.858C334.305 348.998 332.816 348.38 331.718 347.282C330.619 346.184 330.002 344.695 330 343.142V303.858C330.002 302.305 330.619 300.816 331.718 299.718C332.816 298.62 334.305 298.002 335.858 298H409.601C411.155 298.002 412.644 298.619 413.742 299.718C414.84 300.816 415.458 302.305 415.459 303.858V343.142C415.458 344.695 414.84 346.184 413.742 347.282C412.644 348.381 411.155 348.998 409.601 349V349Z" fill="white"/>
<path d="M150.601 480H76.8581C75.305 479.998 73.816 479.381 72.7177 478.282C71.6195 477.184 71.0017 475.695 71 474.142V434.858C71.0017 433.305 71.6195 431.816 72.7177 430.718C73.816 429.62 75.305 429.002 76.8581 429H150.601C152.154 429.002 153.643 429.619 154.742 430.718C155.84 431.816 156.458 433.305 156.459 434.858V474.142C156.458 475.695 155.84 477.184 154.742 478.282C153.643 479.381 152.154 479.998 150.601 480V480Z" fill="white"/>
<path d="M280.143 480H206.4C204.847 479.998 203.358 479.381 202.26 478.282C201.161 477.184 200.544 475.695 200.542 474.142V434.858C200.544 433.305 201.161 431.816 202.26 430.718C203.358 429.62 204.847 429.002 206.4 429H280.143C281.696 429.002 283.185 429.619 284.284 430.718C285.382 431.816 286 433.305 286.001 434.858V474.142C286 475.695 285.382 477.184 284.284 478.282C283.185 479.381 281.696 479.998 280.143 480V480Z" fill="white"/>
<path d="M409.601 480H335.858C334.305 479.998 332.816 479.381 331.718 478.282C330.619 477.184 330.002 475.695 330 474.142V434.858C330.002 433.305 330.619 431.816 331.718 430.718C332.816 429.62 334.305 429.002 335.858 429H409.601C411.155 429.002 412.644 429.619 413.742 430.718C414.84 431.816 415.458 433.305 415.459 434.858V474.142C415.458 475.695 414.84 477.184 413.742 478.282C412.644 479.381 411.155 479.998 409.601 480V480Z" fill="white"/>
<path d="M150.601 611H76.8581C75.305 610.998 73.816 610.381 72.7177 609.282C71.6195 608.184 71.0017 606.695 71 605.142V565.858C71.0017 564.305 71.6195 562.816 72.7177 561.718C73.816 560.619 75.305 560.002 76.8581 560H150.601C152.154 560.002 153.643 560.619 154.742 561.718C155.84 562.816 156.458 564.305 156.459 565.858V605.142C156.458 606.695 155.84 608.184 154.742 609.282C153.643 610.381 152.154 610.998 150.601 611V611Z" fill="white"/>
<path d="M280.143 611H206.4C204.847 610.998 203.358 610.381 202.26 609.282C201.161 608.184 200.544 606.695 200.542 605.142V565.858C200.544 564.305 201.161 562.816 202.26 561.718C203.358 560.619 204.847 560.002 206.4 560H280.143C281.696 560.002 283.185 560.619 284.284 561.718C285.382 562.816 286 564.305 286.001 565.858V605.142C286 606.695 285.382 608.184 284.284 609.282C283.185 610.381 281.696 610.998 280.143 611V611Z" fill="white"/>
<path d="M409.601 611H335.858C334.305 610.998 332.816 610.381 331.718 609.282C330.619 608.184 330.002 606.695 330 605.142V565.858C330.002 564.305 330.619 562.816 331.718 561.718C332.816 560.619 334.305 560.002 335.858 560H409.601C411.155 560.002 412.644 560.619 413.742 561.718C414.84 562.816 415.458 564.305 415.459 565.858V605.142C415.458 606.695 414.84 608.184 413.742 609.282C412.644 610.381 411.155 610.998 409.601 611V611Z" fill="white"/>
<path d="M155.985 354.041H70.5579C68.4936 354.038 66.5144 353.217 65.0547 351.757C63.595 350.297 62.7739 348.318 62.7716 346.254V300.746C62.7739 298.682 63.595 296.703 65.0547 295.243C66.5144 293.783 68.4936 292.962 70.5579 292.959H155.985C158.05 292.962 160.029 293.783 161.489 295.243C162.948 296.703 163.769 298.682 163.772 300.746V346.254C163.769 348.318 162.948 350.297 161.489 351.757C160.029 353.217 158.05 354.038 155.985 354.041ZM70.5579 294.959C69.0238 294.961 67.553 295.571 66.4682 296.656C65.3835 297.741 64.7733 299.212 64.7716 300.746V346.254C64.7733 347.788 65.3835 349.259 66.4682 350.344C67.553 351.429 69.0238 352.039 70.5579 352.041H155.985C157.519 352.039 158.99 351.429 160.075 350.344C161.16 349.259 161.77 347.788 161.772 346.254V300.746C161.77 299.212 161.16 297.741 160.075 296.656C158.99 295.571 157.519 294.961 155.985 294.959H70.5579Z" fill="#3F3D56"/>
<path d="M285.985 354.041H200.558C198.494 354.038 196.514 353.217 195.055 351.757C193.595 350.297 192.774 348.318 192.772 346.254V300.746C192.774 298.682 193.595 296.703 195.055 295.243C196.514 293.783 198.494 292.962 200.558 292.959H285.985C288.05 292.962 290.029 293.783 291.489 295.243C292.948 296.703 293.769 298.682 293.772 300.746V346.254C293.769 348.318 292.948 350.297 291.489 351.757C290.029 353.217 288.05 354.038 285.985 354.041ZM200.558 294.959C199.024 294.961 197.553 295.571 196.468 296.656C195.383 297.741 194.773 299.212 194.772 300.746V346.254C194.773 347.788 195.383 349.259 196.468 350.344C197.553 351.429 199.024 352.039 200.558 352.041H285.985C287.519 352.039 288.99 351.429 290.075 350.344C291.16 349.259 291.77 347.788 291.772 346.254V300.746C291.77 299.212 291.16 297.741 290.075 296.656C288.99 295.571 287.519 294.961 285.985 294.959H200.558Z" fill="#3F3D56"/>
<path d="M415.985 354.041H330.558C328.494 354.038 326.514 353.217 325.055 351.757C323.595 350.297 322.774 348.318 322.772 346.254V300.746C322.774 298.682 323.595 296.703 325.055 295.243C326.514 293.783 328.494 292.962 330.558 292.959H415.985C418.05 292.962 420.029 293.783 421.489 295.243C422.948 296.703 423.769 298.682 423.772 300.746V346.254C423.769 348.318 422.948 350.297 421.489 351.757C420.029 353.217 418.05 354.038 415.985 354.041ZM330.558 294.959C329.024 294.961 327.553 295.571 326.468 296.656C325.383 297.741 324.773 299.212 324.772 300.746V346.254C324.773 347.788 325.383 349.259 326.468 350.344C327.553 351.429 329.024 352.039 330.558 352.041H415.985C417.519 352.039 418.99 351.429 420.075 350.344C421.16 349.259 421.77 347.788 421.772 346.254V300.746C421.77 299.212 421.16 297.741 420.075 296.656C418.99 295.571 417.519 294.961 415.985 294.959H330.558Z" fill="#3F3D56"/>
<path d="M155.985 485.041H70.5579C68.4936 485.038 66.5144 484.217 65.0547 482.757C63.595 481.297 62.7739 479.318 62.7716 477.254V431.746C62.7739 429.682 63.595 427.703 65.0547 426.243C66.5144 424.783 68.4936 423.962 70.5579 423.959H155.985C158.05 423.962 160.029 424.783 161.489 426.243C162.948 427.703 163.769 429.682 163.772 431.746V477.254C163.769 479.318 162.948 481.297 161.489 482.757C160.029 484.217 158.05 485.038 155.985 485.041ZM70.5579 425.959C69.0238 425.961 67.553 426.571 66.4682 427.656C65.3835 428.741 64.7733 430.212 64.7716 431.746V477.254C64.7733 478.788 65.3835 480.259 66.4682 481.344C67.553 482.429 69.0238 483.039 70.5579 483.041H155.985C157.519 483.039 158.99 482.429 160.075 481.344C161.16 480.259 161.77 478.788 161.772 477.254V431.746C161.77 430.212 161.16 428.741 160.075 427.656C158.99 426.571 157.519 425.961 155.985 425.959H70.5579Z" fill="#3F3D56"/>
<path d="M285.985 485.041H200.558C198.494 485.038 196.514 484.217 195.055 482.757C193.595 481.297 192.774 479.318 192.772 477.254V431.746C192.774 429.682 193.595 427.703 195.055 426.243C196.514 424.783 198.494 423.962 200.558 423.959H285.985C288.05 423.962 290.029 424.783 291.489 426.243C292.948 427.703 293.769 429.682 293.772 431.746V477.254C293.769 479.318 292.948 481.297 291.489 482.757C290.029 484.217 288.05 485.038 285.985 485.041ZM200.558 425.959C199.024 425.961 197.553 426.571 196.468 427.656C195.383 428.741 194.773 430.212 194.772 431.746V477.254C194.773 478.788 195.383 480.259 196.468 481.344C197.553 482.429 199.024 483.039 200.558 483.041H285.985C287.519 483.039 288.99 482.429 290.075 481.344C291.16 480.259 291.77 478.788 291.772 477.254V431.746C291.77 430.212 291.16 428.741 290.075 427.656C288.99 426.571 287.519 425.961 285.985 425.959H200.558Z" fill="#3F3D56"/>
<path d="M415.985 485.041H330.558C328.494 485.038 326.514 484.217 325.055 482.757C323.595 481.297 322.774 479.318 322.772 477.254V431.746C322.774 429.682 323.595 427.703 325.055 426.243C326.514 424.783 328.494 423.962 330.558 423.959H415.985C418.05 423.962 420.029 424.783 421.489 426.243C422.948 427.703 423.769 429.682 423.772 431.746V477.254C423.769 479.318 422.948 481.297 421.489 482.757C420.029 484.217 418.05 485.038 415.985 485.041ZM330.558 425.959C329.024 425.961 327.553 426.571 326.468 427.656C325.383 428.741 324.773 430.212 324.772 431.746V477.254C324.773 478.788 325.383 480.259 326.468 481.344C327.553 482.429 329.024 483.039 330.558 483.041H415.985C417.519 483.039 418.99 482.429 420.075 481.344C421.16 480.259 421.77 478.788 421.772 477.254V431.746C421.77 430.212 421.16 428.741 420.075 427.656C418.99 426.571 417.519 425.961 415.985 425.959H330.558Z" fill="#3F3D56"/>
<path d="M155.985 616.041H70.5579C68.4936 616.038 66.5144 615.217 65.0547 613.757C63.595 612.297 62.7739 610.318 62.7716 608.254V562.746C62.7739 560.682 63.595 558.703 65.0547 557.243C66.5144 555.783 68.4936 554.962 70.5579 554.959H155.985C158.05 554.962 160.029 555.783 161.489 557.243C162.948 558.703 163.769 560.682 163.772 562.746V608.254C163.769 610.318 162.948 612.297 161.489 613.757C160.029 615.217 158.05 616.038 155.985 616.041ZM70.5579 556.959C69.0238 556.961 67.553 557.571 66.4682 558.656C65.3835 559.741 64.7733 561.212 64.7716 562.746V608.254C64.7733 609.788 65.3835 611.259 66.4682 612.344C67.553 613.429 69.0238 614.039 70.5579 614.041H155.985C157.519 614.039 158.99 613.429 160.075 612.344C161.16 611.259 161.77 609.788 161.772 608.254V562.746C161.77 561.212 161.16 559.741 160.075 558.656C158.99 557.571 157.519 556.961 155.985 556.959H70.5579Z" fill="#3F3D56"/>
<path d="M285.985 616.041H200.558C198.494 616.038 196.514 615.217 195.055 613.757C193.595 612.297 192.774 610.318 192.772 608.254V562.746C192.774 560.682 193.595 558.703 195.055 557.243C196.514 555.783 198.494 554.962 200.558 554.959H285.985C288.05 554.962 290.029 555.783 291.489 557.243C292.948 558.703 293.769 560.682 293.772 562.746V608.254C293.769 610.318 292.948 612.297 291.489 613.757C290.029 615.217 288.05 616.038 285.985 616.041ZM200.558 556.959C199.024 556.961 197.553 557.571 196.468 558.656C195.383 559.741 194.773 561.212 194.772 562.746V608.254C194.773 609.788 195.383 611.259 196.468 612.344C197.553 613.429 199.024 614.039 200.558 614.041H285.985C287.519 614.039 288.99 613.429 290.075 612.344C291.16 611.259 291.77 609.788 291.772 608.254V562.746C291.77 561.212 291.16 559.741 290.075 558.656C288.99 557.571 287.519 556.961 285.985 556.959H200.558Z" fill="#3F3D56"/>
<path d="M415.985 616.041H330.558C328.494 616.038 326.514 615.217 325.055 613.757C323.595 612.297 322.774 610.318 322.772 608.254V562.746C322.774 560.682 323.595 558.703 325.055 557.243C326.514 555.783 328.494 554.962 330.558 554.959H415.985C418.05 554.962 420.029 555.783 421.489 557.243C422.948 558.703 423.769 560.682 423.772 562.746V608.254C423.769 610.318 422.948 612.297 421.489 613.757C420.029 615.217 418.05 616.038 415.985 616.041ZM330.558 556.959C329.024 556.961 327.553 557.571 326.468 558.656C325.383 559.741 324.773 561.212 324.772 562.746V608.254C324.773 609.788 325.383 611.259 326.468 612.344C327.553 613.429 329.024 614.039 330.558 614.041H415.985C417.519 614.039 418.99 613.429 420.075 612.344C421.16 611.259 421.77 609.788 421.772 608.254V562.746C421.77 561.212 421.16 559.741 420.075 558.656C418.99 557.571 417.519 556.961 415.985 556.959H330.558Z" fill="#3F3D56"/>
<path d="M293.772 673.71C293.799 671.428 292.919 669.229 291.325 667.595C289.731 665.962 287.554 665.028 285.272 665H243.272V768.5H293.772V673.71Z" fill="#3F3D56"/>
<path d="M244.272 767.5H191.772V674C191.775 671.481 192.776 669.067 194.557 667.286C196.338 665.505 198.753 664.503 201.272 664.5H244.272V767.5ZM193.772 765.5H242.272V666.5H201.272C199.283 666.502 197.377 667.293 195.971 668.699C194.565 670.105 193.774 672.012 193.772 674V765.5Z" fill="#3F3D56"/>
<path d="M198.272 723C199.928 723 201.272 721.657 201.272 720C201.272 718.343 199.928 717 198.272 717C196.615 717 195.272 718.343 195.272 720C195.272 721.657 196.615 723 198.272 723Z" fill="#3F3D56"/>
</svg>
