<svg width="192" height="251" viewBox="0 0 192 251" fill="none" xmlns="http://www.w3.org/2000/svg">
<path d="M17.6991 78.01L10.8041 72.493L49.4181 38.016H147.332V68.356L83.8951 111.108L17.6991 78.01Z" fill="#3F3D56"/>
<path d="M165.184 57.3557V38.7047H152.184V43.2726L147.332 38.0157L115.613 72.4926L103.202 80.7676L83.957 221.371L112.98 250.394H180.43C190.765 198.406 198.96 144.999 180.43 73.8716L165.184 57.3557Z" fill="#F2F2F2"/>
<path d="M10.8035 72.493H115.613V250.394H10.8035C-0.665606 181.281 -6.26699 117.188 10.8035 72.493Z" fill="#F2F2F2"/>
<path d="M70.7933 206.953H51.4863V250.394H70.7933V206.953Z" fill="#CCCCCC"/>
<path d="M30.8001 219.365V212.47H22.5261V219.365H30.1111H30.8001Z" fill="#3F3D56"/>
<path d="M30.1111 224.881H22.5261V231.777H30.8001V224.881H30.1111Z" fill="#3F3D56"/>
<path d="M44.5909 212.469H36.3164V219.365H44.5909V212.469Z" fill="#3F3D56"/>
<path d="M86.6531 224.881H79.0681V231.777H87.3421V224.881H86.6531Z" fill="#3F3D56"/>
<path d="M101.133 212.469H92.8586V219.365H101.133V212.469Z" fill="#3F3D56"/>
<path d="M101.133 224.881H92.8586V231.776H101.133V224.881Z" fill="#3F3D56"/>
<path d="M145.263 81.457V74.562H136.989V81.457H144.574H145.263Z" fill="#3F3D56"/>
<path d="M144.574 86.974H136.989V93.869H145.263V86.974H144.574Z" fill="#3F3D56"/>
<path d="M159.054 74.5617H150.78V81.4571H159.054V74.5617Z" fill="#3F3D56"/>
<path d="M159.054 86.9733H150.78V93.8687H159.054V86.9733Z" fill="#3F3D56"/>
<path d="M145.263 120.072V113.176H136.989V120.072H144.574H145.263Z" fill="#3F3D56"/>
<path d="M144.574 125.588H136.989V132.483H145.263V125.588H144.574Z" fill="#3F3D56"/>
<path d="M159.054 113.176H150.78V120.071H159.054V113.176Z" fill="#3F3D56"/>
<path d="M159.054 125.587H150.78V132.483H159.054V125.587Z" fill="#3F3D56"/>
<path d="M145.263 158.686V151.79H136.989V158.686H144.574H145.263Z" fill="#3F3D56"/>
<path d="M144.574 164.202H136.989V171.097H145.263V164.202H144.574Z" fill="#3F3D56"/>
<path d="M159.054 151.79H150.78V158.685H159.054V151.79Z" fill="#3F3D56"/>
<path d="M159.054 164.202H150.78V171.097H159.054V164.202Z" fill="#3F3D56"/>
<path d="M145.263 197.3V190.404H136.989V197.3H144.574H145.263Z" fill="#3F3D56"/>
<path d="M144.574 202.816H136.989V209.711H145.263V202.816H144.574Z" fill="#3F3D56"/>
<path d="M159.054 190.404H150.78V197.299H159.054V190.404Z" fill="#3F3D56"/>
<path d="M159.054 202.816H150.78V209.711H159.054V202.816Z" fill="#3F3D56"/>
<path d="M22.5257 81.457H102.512V98.006C76.874 90.9303 50.1384 91.4378 22.5257 98.006V81.457Z" fill="#3F3D56"/>
<path d="M22.5257 114.555C47.4903 121.91 74.1524 121.91 102.512 114.555V131.104H22.5257V114.555Z" fill="#3F3D56"/>
<path d="M22.5257 147.653H102.512V164.202C75.2529 155.497 48.5627 155.087 22.5257 164.202V147.653Z" fill="#3F3D56"/>
<path d="M22.5257 180.75C48.6117 190.804 75.2979 190.386 102.512 180.75V197.299H22.5257V180.75Z" fill="#3F3D56"/>
<path d="M74.5257 0H86.4115C98.1345 0 109.377 4.65692 117.667 12.9463C125.956 21.2357 130.613 32.4786 130.613 44.2015V44.2015H74.5257V0Z" fill="#3F3D56"/>
<path d="M61.2461 42.289L148.12 38.039L184.563 68.458L178.12 74.275L120.411 72.976L61.2461 42.289Z" fill="#3F3D56"/>
</svg>
