<svg width="633" height="686" viewBox="0 0 633 686" fill="none" xmlns="http://www.w3.org/2000/svg">
<path d="M630.66 106.31H430.43V63.01C430.431 61.6491 430.164 60.3014 429.644 59.0438C429.124 57.7863 428.361 56.6437 427.399 55.6814C426.436 54.7192 425.294 53.9561 424.036 53.4359C422.779 52.9158 421.431 52.6487 420.07 52.65H361.28V6.52C361.28 4.79079 360.593 3.13241 359.37 1.90967C358.148 0.686931 356.489 0 354.76 0H278.99C277.262 0.00264484 275.605 0.690418 274.383 1.91258C273.16 3.13475 272.473 4.7916 272.47 6.52V52.65H203.38C202.017 52.646 200.667 52.9111 199.406 53.43C198.146 53.9488 197 54.7113 196.035 55.6738C195.07 56.6362 194.304 57.7796 193.781 59.0385C193.259 60.2973 192.99 61.647 192.99 63.01V106.28H2.09998C1.5421 106.283 1.00798 106.506 0.614441 106.902C0.220899 107.297 -6.26524e-06 107.832 1.33241e-10 108.39V683.3C-6.26524e-06 683.858 0.220899 684.393 0.614441 684.788C1.00798 685.184 1.5421 685.407 2.09998 685.41H128.99C129.549 685.407 130.084 685.184 130.479 684.789C130.874 684.394 131.097 683.859 131.1 683.3V605.92C131.103 605.361 131.326 604.826 131.721 604.431C132.116 604.036 132.651 603.813 133.21 603.81H186.81C187.368 603.813 187.902 604.036 188.296 604.432C188.689 604.827 188.91 605.362 188.91 605.92V683.26C188.91 683.816 189.13 684.35 189.521 684.745C189.912 685.14 190.444 685.365 191 685.37H441.76C442.317 685.365 442.85 685.14 443.243 684.746C443.636 684.351 443.857 683.817 443.86 683.26V605.92C443.86 605.364 444.079 604.83 444.471 604.435C444.862 604.04 445.394 603.815 445.95 603.81H499.55C500.11 603.81 500.646 604.032 501.042 604.428C501.438 604.824 501.66 605.36 501.66 605.92V683.26C501.663 683.819 501.886 684.354 502.281 684.749C502.676 685.144 503.211 685.367 503.77 685.37H630.66C631.217 685.365 631.75 685.14 632.143 684.746C632.536 684.351 632.757 683.817 632.76 683.26V108.42C632.76 107.862 632.539 107.327 632.146 106.932C631.752 106.536 631.218 106.313 630.66 106.31V106.31ZM108.38 576.99C108.377 577.543 108.156 578.074 107.765 578.465C107.374 578.856 106.843 579.077 106.29 579.08H27.91C27.6347 579.081 27.3618 579.028 27.1071 578.924C26.8524 578.819 26.6208 578.666 26.4257 578.471C26.2305 578.277 26.0757 578.046 25.97 577.792C25.8644 577.538 25.81 577.265 25.81 576.99V550.22C25.8087 549.943 25.862 549.669 25.9669 549.413C26.0719 549.157 26.2264 548.925 26.4215 548.729C26.6166 548.533 26.8486 548.377 27.104 548.271C27.3595 548.165 27.6334 548.11 27.91 548.11H106.29C106.846 548.115 107.378 548.34 107.769 548.735C108.16 549.13 108.38 549.664 108.38 550.22V576.99ZM108.38 507.82C108.38 508.375 108.16 508.908 107.768 509.301C107.377 509.695 106.845 509.917 106.29 509.92H27.91C27.6334 509.92 27.3595 509.865 27.104 509.759C26.8486 509.653 26.6166 509.497 26.4215 509.301C26.2264 509.105 26.0719 508.873 25.9669 508.617C25.862 508.361 25.8087 508.087 25.81 507.81V481.07C25.8087 480.793 25.862 480.519 25.9669 480.263C26.0719 480.007 26.2264 479.775 26.4215 479.579C26.6166 479.383 26.8486 479.227 27.104 479.121C27.3595 479.015 27.6334 478.96 27.91 478.96H106.29C106.566 478.961 106.839 479.017 107.093 479.124C107.347 479.23 107.578 479.386 107.772 479.582C107.966 479.778 108.12 480.01 108.224 480.266C108.328 480.521 108.381 480.794 108.38 481.07V507.82ZM108.38 438.67C108.38 439.225 108.16 439.758 107.768 440.151C107.377 440.545 106.845 440.767 106.29 440.77H27.91C27.353 440.77 26.8189 440.549 26.4251 440.155C26.0313 439.761 25.81 439.227 25.81 438.67V411.92C25.8087 411.643 25.862 411.369 25.9669 411.113C26.0719 410.857 26.2264 410.625 26.4215 410.429C26.6166 410.233 26.8486 410.077 27.104 409.971C27.3595 409.865 27.6334 409.81 27.91 409.81H106.29C106.846 409.815 107.378 410.04 107.769 410.435C108.16 410.83 108.38 411.364 108.38 411.92V438.67ZM108.38 369.5C108.381 369.775 108.328 370.048 108.224 370.303C108.119 370.558 107.966 370.789 107.771 370.984C107.577 371.179 107.346 371.334 107.092 371.44C106.838 371.546 106.565 371.6 106.29 371.6H27.91C27.6339 371.601 27.3602 371.548 27.1048 371.443C26.8494 371.338 26.6174 371.183 26.4221 370.988C26.2269 370.793 26.0722 370.561 25.9671 370.305C25.8621 370.05 25.8087 369.776 25.81 369.5V342.74C25.8087 342.464 25.8621 342.19 25.9671 341.935C26.0722 341.679 26.2269 341.447 26.4221 341.252C26.6174 341.057 26.8494 340.902 27.1048 340.797C27.3602 340.692 27.6339 340.639 27.91 340.64H106.29C106.565 340.64 106.838 340.694 107.092 340.8C107.346 340.906 107.577 341.061 107.771 341.256C107.966 341.451 108.119 341.682 108.224 341.937C108.328 342.192 108.381 342.465 108.38 342.74V369.5ZM108.38 300.34C108.38 300.896 108.16 301.43 107.769 301.825C107.378 302.22 106.846 302.445 106.29 302.45H27.91C27.6334 302.45 27.3595 302.395 27.104 302.289C26.8486 302.183 26.6166 302.027 26.4215 301.831C26.2264 301.635 26.0719 301.403 25.9669 301.147C25.862 300.891 25.8087 300.617 25.81 300.34V273.57C25.81 273.295 25.8644 273.022 25.97 272.768C26.0757 272.514 26.2305 272.283 26.4257 272.089C26.6208 271.894 26.8524 271.741 27.1071 271.636C27.3618 271.532 27.6347 271.479 27.91 271.48H106.29C106.843 271.483 107.374 271.704 107.765 272.095C108.156 272.486 108.377 273.017 108.38 273.57V300.34ZM108.38 231.19C108.377 231.743 108.156 232.274 107.765 232.665C107.374 233.056 106.843 233.277 106.29 233.28H27.91C27.6347 233.281 27.3618 233.228 27.1071 233.124C26.8524 233.019 26.6208 232.866 26.4257 232.671C26.2305 232.477 26.0757 232.246 25.97 231.992C25.8644 231.738 25.81 231.465 25.81 231.19V204.42C25.81 203.862 26.0309 203.327 26.4245 202.932C26.818 202.536 27.3521 202.313 27.91 202.31H106.29C106.846 202.315 107.378 202.54 107.769 202.935C108.16 203.33 108.38 203.864 108.38 204.42V231.19ZM108.38 162.02C108.381 162.296 108.328 162.569 108.224 162.824C108.12 163.08 107.966 163.312 107.772 163.508C107.578 163.704 107.347 163.86 107.093 163.966C106.839 164.073 106.566 164.129 106.29 164.13H27.91C27.6334 164.13 27.3595 164.075 27.104 163.969C26.8486 163.863 26.6166 163.707 26.4215 163.511C26.2264 163.315 26.0719 163.083 25.9669 162.827C25.862 162.571 25.8087 162.297 25.81 162.02V135.27C25.8087 134.993 25.862 134.719 25.9669 134.463C26.0719 134.207 26.2264 133.975 26.4215 133.779C26.6166 133.583 26.8486 133.427 27.104 133.321C27.3595 133.215 27.6334 133.16 27.91 133.16H106.29C106.566 133.161 106.839 133.217 107.093 133.324C107.347 133.43 107.578 133.586 107.772 133.782C107.966 133.978 108.12 134.21 108.224 134.466C108.328 134.721 108.381 134.994 108.38 135.27V162.02ZM294.18 577.02C294.18 577.295 294.126 577.568 294.02 577.822C293.914 578.076 293.759 578.307 293.564 578.501C293.369 578.696 293.138 578.849 292.883 578.954C292.628 579.058 292.355 579.111 292.08 579.11H213.71C213.154 579.11 212.62 578.89 212.225 578.499C211.83 578.108 211.605 577.576 211.6 577.02V550.22C211.603 549.661 211.826 549.126 212.221 548.731C212.616 548.336 213.151 548.113 213.71 548.11H292.08C292.357 548.11 292.63 548.165 292.886 548.271C293.141 548.377 293.373 548.533 293.568 548.729C293.764 548.925 293.918 549.157 294.023 549.413C294.128 549.669 294.181 549.943 294.18 550.22V577.02ZM294.18 507.85C294.181 508.127 294.128 508.401 294.023 508.657C293.918 508.913 293.764 509.145 293.568 509.341C293.373 509.537 293.141 509.693 292.886 509.799C292.63 509.905 292.357 509.96 292.08 509.96H213.71C213.15 509.96 212.614 509.738 212.218 509.342C211.822 508.946 211.6 508.41 211.6 507.85V481.07C211.6 480.51 211.822 479.974 212.218 479.578C212.614 479.182 213.15 478.96 213.71 478.96H292.08C292.357 478.96 292.63 479.015 292.886 479.121C293.141 479.227 293.373 479.383 293.568 479.579C293.764 479.775 293.918 480.007 294.023 480.263C294.128 480.519 294.181 480.793 294.18 481.07V507.85ZM294.18 438.7C294.18 439.257 293.959 439.791 293.565 440.185C293.171 440.579 292.637 440.8 292.08 440.8H213.71C213.152 440.8 212.617 440.579 212.222 440.186C211.826 439.792 211.603 439.258 211.6 438.7V411.92C211.603 411.361 211.826 410.826 212.221 410.431C212.616 410.036 213.151 409.813 213.71 409.81H292.08C292.357 409.81 292.63 409.865 292.886 409.971C293.141 410.077 293.373 410.233 293.568 410.429C293.764 410.625 293.918 410.857 294.023 411.113C294.128 411.369 294.181 411.643 294.18 411.92V438.7ZM294.18 369.53C294.181 369.806 294.128 370.08 294.023 370.335C293.918 370.591 293.763 370.823 293.568 371.018C293.373 371.213 293.141 371.368 292.885 371.473C292.63 371.578 292.356 371.631 292.08 371.63H213.71C213.433 371.631 213.159 371.578 212.903 371.473C212.647 371.368 212.415 371.214 212.219 371.018C212.023 370.823 211.867 370.591 211.761 370.336C211.655 370.08 211.6 369.807 211.6 369.53V342.74C211.6 342.463 211.655 342.189 211.761 341.934C211.867 341.679 212.023 341.447 212.219 341.252C212.415 341.056 212.647 340.902 212.903 340.797C213.159 340.692 213.433 340.639 213.71 340.64H292.08C292.356 340.639 292.63 340.692 292.885 340.797C293.141 340.902 293.373 341.057 293.568 341.252C293.763 341.447 293.918 341.679 294.023 341.935C294.128 342.19 294.181 342.464 294.18 342.74V369.53ZM294.18 300.37C294.181 300.647 294.128 300.921 294.023 301.177C293.918 301.433 293.764 301.665 293.568 301.861C293.373 302.057 293.141 302.213 292.886 302.319C292.63 302.425 292.357 302.48 292.08 302.48H213.71C213.151 302.477 212.616 302.254 212.221 301.859C211.826 301.464 211.603 300.929 211.6 300.37V273.57C211.605 273.014 211.83 272.482 212.225 272.091C212.62 271.7 213.154 271.48 213.71 271.48H292.08C292.355 271.479 292.628 271.532 292.883 271.636C293.138 271.741 293.369 271.894 293.564 272.089C293.759 272.283 293.914 272.514 294.02 272.768C294.126 273.022 294.18 273.295 294.18 273.57V300.37ZM294.18 231.22C294.18 231.495 294.126 231.768 294.02 232.022C293.914 232.276 293.759 232.507 293.564 232.701C293.369 232.896 293.138 233.049 292.883 233.154C292.628 233.258 292.355 233.311 292.08 233.31H213.71C213.154 233.31 212.62 233.09 212.225 232.699C211.83 232.308 211.605 231.776 211.6 231.22V204.42C211.603 203.861 211.826 203.326 212.221 202.931C212.616 202.536 213.151 202.313 213.71 202.31H292.08C292.638 202.313 293.172 202.536 293.566 202.932C293.959 203.327 294.18 203.862 294.18 204.42V231.22ZM294.18 162.05C294.181 162.327 294.128 162.601 294.023 162.857C293.918 163.113 293.764 163.345 293.568 163.541C293.373 163.737 293.141 163.893 292.886 163.999C292.63 164.105 292.357 164.16 292.08 164.16H213.71C213.15 164.16 212.614 163.938 212.218 163.542C211.822 163.146 211.6 162.61 211.6 162.05V135.27C211.6 134.71 211.822 134.174 212.218 133.778C212.614 133.382 213.15 133.16 213.71 133.16H292.08C292.357 133.16 292.63 133.215 292.886 133.321C293.141 133.427 293.373 133.583 293.568 133.779C293.764 133.975 293.918 134.207 294.023 134.463C294.128 134.719 294.181 134.993 294.18 135.27V162.05ZM421.18 577.05C421.179 577.326 421.123 577.599 421.016 577.853C420.91 578.107 420.754 578.338 420.558 578.532C420.362 578.726 420.13 578.88 419.874 578.984C419.619 579.088 419.346 579.141 419.07 579.14H340.67C340.115 579.14 339.582 578.92 339.189 578.528C338.795 578.137 338.573 577.605 338.57 577.05V550.22C338.57 549.662 338.791 549.127 339.184 548.732C339.578 548.336 340.112 548.113 340.67 548.11H419.04C419.6 548.11 420.136 548.332 420.532 548.728C420.928 549.124 421.15 549.66 421.15 550.22L421.18 577.05ZM421.18 507.88C421.181 508.157 421.128 508.432 421.022 508.689C420.917 508.946 420.761 509.179 420.565 509.375C420.369 509.571 420.136 509.727 419.879 509.832C419.622 509.938 419.347 509.991 419.07 509.99H340.67C340.112 509.987 339.578 509.764 339.184 509.368C338.791 508.973 338.57 508.438 338.57 507.88V481.07C338.57 480.512 338.791 479.977 339.184 479.581C339.578 479.186 340.112 478.963 340.67 478.96H419.04C419.317 478.959 419.592 479.012 419.849 479.118C420.106 479.223 420.339 479.379 420.535 479.575C420.731 479.771 420.886 480.004 420.992 480.261C421.098 480.518 421.151 480.793 421.15 481.07L421.18 507.88ZM421.18 438.73C421.177 439.288 420.954 439.822 420.558 440.216C420.163 440.609 419.628 440.83 419.07 440.83H340.67C340.114 440.827 339.581 440.605 339.188 440.212C338.795 439.819 338.573 439.286 338.57 438.73V411.92C338.57 411.362 338.791 410.827 339.184 410.432C339.578 410.036 340.112 409.813 340.67 409.81H419.04C419.6 409.81 420.136 410.032 420.532 410.428C420.928 410.824 421.15 411.36 421.15 411.92L421.18 438.73ZM421.18 369.56C421.18 369.837 421.125 370.11 421.019 370.366C420.913 370.621 420.757 370.853 420.561 371.048C420.365 371.244 420.133 371.398 419.877 371.503C419.621 371.608 419.347 371.661 419.07 371.66H340.67C340.394 371.66 340.121 371.606 339.866 371.5C339.612 371.395 339.38 371.24 339.185 371.045C338.99 370.85 338.835 370.618 338.73 370.364C338.624 370.109 338.57 369.836 338.57 369.56V342.74C338.57 342.464 338.624 342.191 338.73 341.936C338.835 341.682 338.99 341.45 339.185 341.255C339.38 341.06 339.612 340.905 339.866 340.8C340.121 340.694 340.394 340.64 340.67 340.64H419.04C419.317 340.639 419.591 340.692 419.847 340.797C420.103 340.902 420.335 341.056 420.531 341.252C420.727 341.447 420.883 341.679 420.989 341.934C421.095 342.189 421.15 342.463 421.15 342.74L421.18 369.56ZM421.18 300.4C421.18 300.96 420.958 301.496 420.562 301.892C420.166 302.288 419.63 302.51 419.07 302.51H340.67C340.112 302.507 339.578 302.284 339.184 301.888C338.791 301.493 338.57 300.958 338.57 300.4V273.57C338.573 273.015 338.795 272.483 339.189 272.092C339.582 271.7 340.115 271.48 340.67 271.48H419.04C419.316 271.479 419.589 271.532 419.844 271.636C420.1 271.74 420.332 271.894 420.528 272.088C420.724 272.282 420.88 272.513 420.986 272.767C421.093 273.021 421.149 273.294 421.15 273.57L421.18 300.4ZM421.18 231.25C421.179 231.526 421.123 231.799 421.016 232.053C420.91 232.307 420.754 232.538 420.558 232.732C420.362 232.926 420.13 233.08 419.874 233.184C419.619 233.288 419.346 233.341 419.07 233.34H340.67C340.115 233.34 339.582 233.12 339.189 232.728C338.795 232.337 338.573 231.805 338.57 231.25V204.42C338.573 203.863 338.794 203.329 339.187 202.934C339.58 202.54 340.113 202.315 340.67 202.31H419.04C419.599 202.313 420.134 202.536 420.529 202.931C420.924 203.326 421.147 203.861 421.15 204.42L421.18 231.25ZM421.18 162.08C421.181 162.357 421.128 162.632 421.022 162.889C420.917 163.146 420.761 163.379 420.565 163.575C420.369 163.771 420.136 163.927 419.879 164.032C419.622 164.138 419.347 164.191 419.07 164.19H340.67C340.112 164.187 339.578 163.964 339.184 163.568C338.791 163.173 338.57 162.638 338.57 162.08V135.27C338.57 134.712 338.791 134.177 339.184 133.782C339.578 133.386 340.112 133.163 340.67 133.16H419.04C419.317 133.159 419.592 133.212 419.849 133.318C420.106 133.423 420.339 133.579 420.535 133.775C420.731 133.971 420.886 134.204 420.992 134.461C421.098 134.718 421.151 134.993 421.15 135.27L421.18 162.08ZM606.99 576.99C606.985 577.546 606.76 578.078 606.365 578.469C605.97 578.86 605.436 579.08 604.88 579.08H526.48C526.204 579.081 525.931 579.028 525.676 578.924C525.42 578.82 525.188 578.666 524.992 578.472C524.796 578.278 524.64 578.047 524.534 577.793C524.427 577.539 524.371 577.266 524.37 576.99V550.22C524.37 549.66 524.592 549.124 524.988 548.728C525.384 548.332 525.92 548.11 526.48 548.11H604.85C605.129 548.107 605.406 548.16 605.665 548.265C605.924 548.369 606.16 548.524 606.358 548.72C606.557 548.916 606.715 549.15 606.824 549.407C606.932 549.664 606.989 549.941 606.99 550.22V576.99ZM606.99 507.82C606.99 508.38 606.768 508.916 606.372 509.312C605.976 509.708 605.44 509.93 604.88 509.93H526.48C526.203 509.931 525.928 509.878 525.671 509.772C525.414 509.667 525.181 509.511 524.985 509.315C524.789 509.119 524.633 508.886 524.528 508.629C524.422 508.372 524.369 508.097 524.37 507.82V481.07C524.369 480.793 524.422 480.518 524.528 480.261C524.633 480.004 524.789 479.771 524.985 479.575C525.181 479.379 525.414 479.223 525.671 479.118C525.928 479.012 526.203 478.959 526.48 478.96H604.85C605.41 478.96 605.946 479.182 606.342 479.578C606.738 479.974 606.96 480.51 606.96 481.07L606.99 507.82ZM606.99 438.67C606.987 439.228 606.764 439.762 606.368 440.156C605.973 440.549 605.438 440.77 604.88 440.77H526.48C525.922 440.77 525.387 440.549 524.992 440.156C524.596 439.762 524.373 439.228 524.37 438.67V411.92C524.37 411.36 524.592 410.824 524.988 410.428C525.384 410.032 525.92 409.81 526.48 409.81H604.85C605.129 409.807 605.406 409.86 605.665 409.965C605.924 410.069 606.16 410.224 606.358 410.42C606.557 410.616 606.715 410.85 606.824 411.107C606.932 411.364 606.989 411.641 606.99 411.92V438.67ZM606.99 369.5C606.99 369.777 606.935 370.05 606.829 370.306C606.723 370.561 606.567 370.793 606.371 370.988C606.175 371.184 605.943 371.338 605.687 371.443C605.431 371.548 605.157 371.601 604.88 371.6H526.48C526.203 371.601 525.929 371.548 525.673 371.443C525.417 371.338 525.185 371.184 524.989 370.988C524.793 370.793 524.637 370.561 524.531 370.306C524.425 370.05 524.37 369.777 524.37 369.5V342.74C524.37 342.463 524.425 342.189 524.531 341.934C524.637 341.679 524.793 341.447 524.989 341.252C525.185 341.056 525.417 340.902 525.673 340.797C525.929 340.692 526.203 340.639 526.48 340.64H604.85C605.127 340.639 605.401 340.692 605.657 340.797C605.913 340.902 606.145 341.056 606.341 341.252C606.537 341.447 606.693 341.679 606.799 341.934C606.905 342.189 606.96 342.463 606.96 342.74L606.99 369.5ZM606.99 300.34C606.987 300.899 606.764 301.434 606.369 301.829C605.974 302.224 605.439 302.447 604.88 302.45H526.48C525.92 302.45 525.384 302.228 524.988 301.832C524.592 301.436 524.37 300.9 524.37 300.34V273.57C524.371 273.294 524.427 273.021 524.534 272.767C524.64 272.513 524.796 272.282 524.992 272.088C525.188 271.894 525.42 271.74 525.676 271.636C525.931 271.532 526.204 271.479 526.48 271.48H604.85C605.406 271.48 605.94 271.7 606.335 272.091C606.73 272.482 606.955 273.014 606.96 273.57L606.99 300.34ZM606.99 231.19C606.985 231.746 606.76 232.278 606.365 232.669C605.97 233.06 605.436 233.28 604.88 233.28H526.48C526.204 233.281 525.931 233.228 525.676 233.124C525.42 233.02 525.188 232.866 524.992 232.672C524.796 232.478 524.64 232.247 524.534 231.993C524.427 231.739 524.371 231.466 524.37 231.19V204.42C524.373 203.861 524.596 203.326 524.991 202.931C525.386 202.536 525.921 202.313 526.48 202.31H604.85C605.129 202.307 605.406 202.36 605.665 202.465C605.924 202.569 606.16 202.724 606.358 202.92C606.557 203.116 606.715 203.35 606.824 203.607C606.932 203.864 606.989 204.141 606.99 204.42V231.19ZM606.99 162.02C606.99 162.58 606.768 163.116 606.372 163.512C605.976 163.908 605.44 164.13 604.88 164.13H526.48C526.203 164.131 525.928 164.078 525.671 163.972C525.414 163.867 525.181 163.711 524.985 163.515C524.789 163.319 524.633 163.086 524.528 162.829C524.422 162.572 524.369 162.297 524.37 162.02V135.27C524.369 134.993 524.422 134.718 524.528 134.461C524.633 134.204 524.789 133.971 524.985 133.775C525.181 133.579 525.414 133.423 525.671 133.318C525.928 133.212 526.203 133.159 526.48 133.16H604.85C605.41 133.16 605.946 133.382 606.342 133.778C606.738 134.174 606.96 134.71 606.96 135.27L606.99 162.02Z" fill="#F2F2F2"/>
</svg>
