<svg width="411" height="638" viewBox="0 0 411 638" fill="none" xmlns="http://www.w3.org/2000/svg">
<path d="M370 76.626V141.291L339.71 161.711L295.21 191.691L245.76 225.021L168.16 186.221L70.11 137.201L49.69 126.991L29.27 110.651L92.32 54.3508L110.429 38.1829C131.818 19.0859 159.488 8.53082 188.162 8.53082H301.905C310.847 8.53082 319.702 10.2922 327.964 13.7143C336.225 17.1364 343.732 22.1522 350.055 28.4754C356.379 34.7987 361.394 42.3054 364.817 50.5671C368.239 58.8288 370 67.6836 370 76.626V76.626Z" fill="#3F3D56"/>
<path d="M339.98 110.361L370 77.7308C422.49 271.355 426.78 458.545 370 637.581H331.91L329.86 635.531L276.76 582.441L245.94 551.621L246.75 545.681L249.55 525.251L255.7 480.321L262.41 431.301L269.12 382.291L275.83 333.271L281.27 293.501L281.55 291.491L282.54 284.251L289.25 235.231L295.21 191.691L295.96 186.221L300.9 150.141L302.95 135.161L339.71 110.651L339.98 110.361Z" fill="#CCCCCC"/>
<path d="M29.2665 110.648H339.71V637.585H29.2665C-4.63057 444.78 -13.1514 264.821 29.2665 110.648Z" fill="#F2F2F2"/>
<path d="M206.954 508.914H149.767V637.585H206.954V508.914Z" fill="#CCCCCC"/>
<path d="M300.904 431.304H63.9871V480.321H300.904V431.304Z" fill="#3F3D56"/>
<path d="M319 548.422H217.987V569.321H319V548.422Z" fill="#3F3D56"/>
<path d="M139 548.422H37.9871V569.321H139V548.422Z" fill="#3F3D56"/>
<path d="M300.904 333.269H63.9871V382.286H300.904V333.269Z" fill="#3F3D56"/>
<path d="M300.904 235.234H63.9871V284.252H300.904V235.234Z" fill="#3F3D56"/>
<path d="M300.904 137.199H63.9871V186.217H300.904V137.199Z" fill="#3F3D56"/>
<path d="M182.87 6.61085L307.057 0.538536C324.185 -0.298955 340.999 5.35666 354.138 16.3755C367.278 27.3943 375.777 42.965 377.936 59.9768L393 178.641L340.09 110.421L339.98 110.361L181.65 28.2409L178.508 26.6115C168.897 21.6279 172.057 7.14007 182.87 6.61085H182.87Z" fill="#3F3D56"/>
<path d="M246 47.4217H144.987V68.3209H246V47.4217Z" fill="#F2F2F2"/>
<path d="M207 495.641H160C127.265 367.851 127.265 242.517 160 119.641H207C236.92 247.134 237.993 372.544 207 495.641Z" fill="#F2F2F2"/>
</svg>
