<svg width="174" height="150" viewBox="0 0 174 150" fill="none" xmlns="http://www.w3.org/2000/svg">
<path d="M73 150H64V1.2688C64 0.932291 64.4742 0.609569 65.3181 0.371623C66.162 0.133678 67.3066 0 68.5 0C69.6935 0 70.8381 0.133678 71.682 0.371623C72.526 0.609569 73 0.932291 73 1.2688V150Z" fill="white"/>
<path d="M135.45 69H4.5C3.30694 68.9987 2.16308 68.5241 1.31946 67.6805C0.475835 66.8369 0.00134192 65.6931 0 64.5V26.5C0.00134192 25.3069 0.475835 24.1631 1.31946 23.3195C2.16308 22.4759 3.30694 22.0013 4.5 22H135.459C136.227 22.0005 136.982 22.197 137.652 22.5708L171.517 41.4697C172.215 41.8592 172.797 42.4277 173.202 43.1165C173.608 43.8054 173.822 44.5899 173.824 45.3892C173.826 46.1886 173.615 46.974 173.212 47.6646C172.81 48.3553 172.231 48.9263 171.534 49.3188L137.66 68.4199C136.985 68.7997 136.224 68.9995 135.45 69Z" fill="white"/>
</svg>
