<svg width="75" height="95" viewBox="0 0 75 95" fill="none" xmlns="http://www.w3.org/2000/svg">
<path d="M77.0938 42.7663C76.7396 41.6824 74.0552 42.1596 73.7974 41.1901C73.5406 40.2242 76.1165 39.4143 78.0922 36.6921C78.4485 36.2012 80.6936 33.1077 79.8325 31.8066C78.2004 29.3404 66.8443 35.4828 64.1185 32.0359C63.5202 31.2794 63.2741 29.9808 61.492 27.5639C60.783 26.6024 60.3282 26.1383 59.7847 26.152C59.0136 26.1715 58.7377 27.1362 57.5257 28.8837C55.7081 31.5044 55.0522 31.1753 53.8548 33.3226C52.9659 34.9166 52.8606 35.9351 52.2196 35.9951C51.3126 36.0801 50.9378 34.0955 49.8294 34.0185C48.6984 33.9399 47.5667 35.901 47.0056 37.4331C45.9528 40.3082 46.6047 42.5057 46.7493 44.6958C46.9063 47.0758 46.5375 50.5598 43.9515 55.0316L19.5599 93.8935C24.7982 85.9711 39.6679 64.3677 45.6588 56.4435C47.3883 54.156 49.2468 51.8589 52.1074 51.4268C54.8615 51.0107 58.2125 52.3733 62.8898 52.294C63.4361 52.2847 64.9563 52.2396 65.3261 51.4338C65.6318 50.7677 64.8727 50.1885 65.1489 49.5623C65.5192 48.7224 67.1857 49.0828 69.4567 48.525C71.058 48.1316 72.1459 47.4817 73.0815 46.9228C73.3635 46.7543 77.5654 44.2091 77.0939 42.7663H77.0938Z" fill="#F2F2F2"/>
<path d="M13.2077 51.8396C12.5735 51.7007 12.0331 53.156 11.4829 53.0027C10.9347 52.8501 11.2805 51.3521 10.5145 49.597C10.3763 49.2805 9.50586 47.286 8.61879 47.3333C6.93742 47.4227 6.67556 54.7686 4.19728 55.1119C3.65341 55.1873 2.94497 54.9334 1.24458 55.1107C0.568122 55.1813 0.209105 55.2706 0.0590355 55.5413C-0.153895 55.9254 0.239949 56.3392 0.747939 57.4382C1.50976 59.0864 1.15898 59.3134 1.86739 60.5207C2.39328 61.4169 2.86278 61.7624 2.70729 62.0943C2.48729 62.564 1.40508 62.1754 1.0475 62.6971C0.68262 63.2296 1.31856 64.3508 1.90864 65.0683C3.01599 66.4146 4.28264 66.7286 5.39925 67.2896C6.61271 67.8992 8.21632 69.0855 9.66493 71.645L21.7008 94.8295C19.3239 89.9726 13.0111 76.4412 10.8505 71.2144C10.2267 69.7056 9.63562 68.1306 10.2489 66.6019C10.8393 65.1301 12.475 63.8786 13.7856 61.56C13.9387 61.2892 14.3551 60.5301 14.0664 60.1161C13.8276 59.7739 13.3243 59.9793 13.0967 59.6631C12.7913 59.239 13.449 58.5251 13.8305 57.2495C14.0994 56.3501 14.0944 55.6286 14.09 55.0081C14.0887 54.8211 14.0518 52.0244 13.2077 51.8395V51.8396V51.8396Z" fill="#F2F2F2"/>
<path d="M25.2152 57.4965L25.5936 54.0036L25.8256 53.7841C26.8992 52.7696 27.5707 51.6947 27.8226 50.5884C27.8627 50.4125 27.8938 50.2346 27.9255 50.0534C28.0512 49.3352 28.2071 48.4425 28.8976 47.5152C29.284 46.9985 30.3062 45.8308 31.3604 46.2387C31.645 46.3454 31.837 46.5298 31.9705 46.7254C32.0039 46.6914 32.0383 46.6576 32.075 46.6209C32.5303 46.1783 32.8489 46.0162 33.1558 45.8601C33.3916 45.74 33.6351 45.6164 34.0471 45.2868C34.2279 45.1423 34.3727 45.0122 34.4946 44.903C34.8645 44.5727 35.3377 44.1859 35.9858 44.3391C36.6728 44.5269 36.9084 45.1822 37.0647 45.6161C37.3438 46.39 37.4298 46.9222 37.4866 47.2752C37.5071 47.4041 37.5309 47.5493 37.5488 47.5965C37.6992 47.9755 39.5869 48.0735 40.2972 48.1145C41.8938 48.2011 43.2753 48.2761 43.6075 49.3693C43.8459 50.1514 43.3491 51.0044 42.0882 51.972C41.6954 52.2731 41.3028 52.4809 40.9607 52.636C41.1711 52.835 41.3387 53.1056 41.349 53.4741C41.3721 54.3463 40.4775 55.0156 38.6901 55.4668C38.246 55.5802 37.6486 55.7302 36.8668 55.6923C36.4986 55.6741 36.176 55.6177 35.9011 55.565C35.8601 55.7217 35.7849 55.8846 35.6494 56.0392C35.2515 56.4946 34.6091 56.6104 33.7371 56.3537C32.7743 56.0854 32.0136 55.7205 31.3424 55.3998C30.7561 55.1205 30.2506 54.8817 29.8264 54.8164C29.0375 54.7061 28.3018 55.1932 27.4214 55.8415L25.2153 57.4965L25.2152 57.4965Z" fill="#F2F2F2"/>
<path d="M31.5115 37.6017L28.0369 38.1217L27.7657 37.953C26.512 37.1719 25.302 36.7949 24.168 36.8318C23.9877 36.8377 23.8077 36.8528 23.6244 36.868C22.8978 36.9286 21.9947 37.0042 20.9226 36.5716C20.3248 36.3288 18.9361 35.6363 19.0632 34.5131C19.0942 34.2108 19.2239 33.9782 19.3793 33.7996C19.3379 33.7758 19.2965 33.7511 19.2516 33.725C18.7081 33.3967 18.4705 33.1297 18.2416 32.8725C18.0656 32.6748 17.8843 32.4707 17.461 32.1557C17.2754 32.0175 17.1128 31.9104 16.9762 31.8202C16.5628 31.5462 16.0687 31.1866 16.0525 30.5208C16.0599 29.8086 16.6341 29.4145 17.0141 29.1533C17.6919 28.687 18.1849 28.4688 18.5119 28.3243C18.6314 28.2718 18.7658 28.212 18.8069 28.1826C19.1354 27.941 18.7514 26.0902 18.6109 25.3928C18.2897 23.8265 18.0118 22.4711 18.985 21.8724C19.681 21.4434 20.6322 21.7077 21.888 22.6818C22.2788 22.9854 22.5794 23.3125 22.8163 23.6041C22.9553 23.3501 23.1745 23.1193 23.5284 23.0159C24.3663 22.7723 25.2406 23.4679 26.1304 25.0824C26.3527 25.4832 26.6494 26.0231 26.811 26.7889C26.8868 27.1497 26.9141 27.4759 26.9329 27.7553C27.0948 27.7552 27.2714 27.7866 27.4553 27.8785C27.9967 28.1478 28.2717 28.7399 28.2446 29.6485C28.2293 30.6478 28.0693 31.4762 27.9293 32.2068C27.8079 32.8448 27.7051 33.3943 27.7496 33.8212C27.843 34.6123 28.5007 35.2003 29.3511 35.8875L31.5116 37.6017H31.5115L31.5115 37.6017Z" fill="#F2F2F2"/>
<path d="M31.9798 27.1674L32.3582 23.6746L32.5901 23.4551C33.6637 22.4405 34.3353 21.3657 34.5872 20.2594C34.6273 20.0835 34.6584 19.9056 34.6901 19.7244C34.8158 19.0062 34.9717 18.1135 35.6622 17.1862C36.0486 16.6695 37.0708 15.5018 38.125 15.9097C38.4095 16.0163 38.6016 16.2008 38.735 16.3964C38.7685 16.3624 38.8028 16.3286 38.8395 16.2919C39.2949 15.8493 39.6135 15.6872 39.9203 15.5311C40.1561 15.411 40.3997 15.2874 40.8117 14.9578C40.9925 14.8133 41.1372 14.6832 41.2592 14.574C41.6291 14.2437 42.1022 13.8569 42.7504 14.0101C43.4374 14.1979 43.673 14.8532 43.8293 15.2871C44.1084 16.061 44.1944 16.5932 44.2512 16.9462C44.2717 17.0751 44.2954 17.2203 44.3134 17.2675C44.4638 17.6465 46.3515 17.7445 47.0618 17.7855C48.6583 17.8721 50.0399 17.9471 50.3721 19.0403C50.6105 19.8224 50.1136 20.6754 48.8528 21.643C48.46 21.9441 48.0674 22.1519 47.7253 22.307C47.9357 22.506 48.1033 22.7765 48.1136 23.145C48.1367 24.0173 47.2421 24.6866 45.4547 25.1378C45.0106 25.2512 44.4131 25.4012 43.6313 25.3633C43.2632 25.3451 42.9406 25.2887 42.6656 25.236C42.6246 25.3927 42.5495 25.5556 42.4139 25.7102C42.0161 26.1656 41.3737 26.2813 40.5016 26.0247C39.5389 25.7564 38.7782 25.3915 38.107 25.0708C37.5207 24.7915 37.0152 24.5526 36.591 24.4874C35.8021 24.3771 35.0664 24.8642 34.186 25.5125L31.9799 27.1675L31.9798 27.1674Z" fill="#F2F2F2"/>
<path d="M20.713 94.0924L20.0987 93.4855L20.1098 92.6227L20.0987 93.4855L19.2448 93.3953C19.2489 93.315 19.2433 93.1272 19.237 92.8339C19.2042 91.2271 19.1022 86.3368 19.7832 78.8228C20.2587 73.5777 21.0532 68.2535 22.1448 62.9954C23.2382 57.7292 24.373 53.8108 25.2845 50.6614C25.9723 48.286 26.6665 46.033 27.3443 43.8385C29.1529 37.9752 30.8607 32.4366 31.9182 26.119C32.1551 24.7088 32.6466 21.7732 31.6403 18.3083C31.0564 16.2988 30.0567 14.4072 28.6679 12.688L30.0121 11.6025C31.5446 13.5024 32.65 15.5971 33.2984 17.8284C34.4142 21.67 33.8787 24.8688 33.6214 26.4057C32.545 32.8347 30.8202 38.4266 28.9937 44.3463C28.3195 46.533 27.6274 48.7761 26.9426 51.1418C26.0394 54.262 24.9148 58.1463 23.8357 63.3449C22.7564 68.54 21.972 73.7992 21.5018 78.9782C20.8299 86.3974 20.9308 91.2149 20.9638 92.7976C20.9809 93.6426 20.9846 93.8196 20.713 94.0924V94.0924Z" fill="#F2F2F2"/>
<path d="M24.9807 14.676C24.9116 14.6606 24.842 14.6433 24.7724 14.6226C23.3548 14.2252 22.2177 13.0699 21.3917 11.1895C21.0051 10.3052 20.9138 9.37458 20.7318 7.51858C20.7033 7.23238 20.5771 5.78442 20.7322 3.86542C20.8331 2.61143 20.9679 2.10779 21.3092 1.71234C21.6881 1.27176 22.1987 1.01943 22.7382 0.892761C22.7528 0.726731 22.8071 0.564412 22.9149 0.410522C23.3587 -0.228038 24.1016 0.0343884 24.5047 0.170928C24.7078 0.243868 24.961 0.336581 25.2456 0.384521C25.693 0.461861 25.9602 0.383254 26.3645 0.266174C26.7515 0.153834 27.2326 0.0141404 27.8976 0.0260004C29.2097 0.0440304 30.1811 0.63378 30.5014 0.82785C32.1884 1.84147 32.7708 3.45857 33.4448 5.33102C33.5787 5.70635 34.0232 7.06299 34.1267 8.80994C34.2014 10.0703 34.0363 10.5862 33.8469 10.955C33.4601 11.7134 32.8678 12.065 31.3979 12.8046C29.8622 13.5796 29.0916 13.9674 28.4599 14.1668C26.9898 14.6283 26.0667 14.9181 24.9807 14.6759V14.6759V14.676Z" fill="#F2F2F2"/>
</svg>
