<svg width="869" height="264" viewBox="0 0 869 264" fill="none" xmlns="http://www.w3.org/2000/svg">
<path d="M837.337 219.206L835.916 219.03L835.674 220.442L832.224 240.563L804.768 241.959L768.388 188.285C766.542 182.266 760.512 178.441 752.979 176.19C745.265 173.885 735.512 173.08 725.583 173.445C715.641 173.811 705.426 175.354 696.757 177.812C688.158 180.251 680.827 183.659 676.911 187.919L676.849 187.987L676.796 188.062L628.22 256.012L256.26 261.98L248.763 218.496C247.557 211.503 243.285 204.205 237.366 197.34C212.137 168.081 169.339 161.842 136.053 181.336C128.728 185.626 121.499 190.359 115.681 195.182C109.913 199.965 105.33 204.997 103.587 209.928L86.9544 256.958L38.5703 255.06L40.4983 214.571L40.5769 212.921L38.9269 213.002L2.05362 214.8L43.1298 79.4306L376.02 78.4339L377.432 78.4297L377.513 77.0207L380.913 18.3926C382.205 8.72431 390.454 1.5 400.213 1.5H534.183C545.031 1.5 555.092 7.16368 560.72 16.4384L560.727 16.4511L560.735 16.4636L571.723 33.7861L571.733 33.8034L583.714 53.2717L583.723 53.2861L594.202 70.7516L594.214 70.7717L605.202 89.7516L605.61 90.4559L606.422 90.498L792.872 100.155C826.324 101.888 850.76 132.439 845.101 165.454L843.644 173.95L843.38 175.486L844.925 175.691C857.316 177.336 866.516 186.585 866.516 197.434C866.516 209.396 855.302 219.434 841.016 219.434C839.767 219.434 838.538 219.356 837.337 219.206ZM414.533 96.1887L414.157 97.9608L415.968 97.9997L555.968 101L558.377 101.051L557.36 98.8667L527.792 35.3815L526.432 36.0148L527.792 35.3814C524.852 29.0722 518.402 25.1551 511.449 25.4573L444.362 28.3742C435.185 28.7731 427.442 35.3301 425.537 44.3149L414.533 96.1887ZM545.939 22.4393L545.247 23.1314L545.602 24.0437L573.602 96.0437L573.882 96.7633L574.63 96.9537L590.35 100.954L591.382 101.216L591.97 100.329L601.25 86.3288L601.798 85.5026L601.253 84.6749L578.418 50.0095L555.584 15.3442L554.571 13.8076L553.27 15.1086L545.939 22.4393Z" fill="#B84078" stroke="#9E265E" stroke-width="3"/>
<path d="M452.5 123H414.5V115H452.5V123Z" fill="#3F3D56"/>
<path d="M575 95.5L546.5 23.5L554.5 16L600 85.5L591 99.5L575 95.5Z" fill="white" fill-opacity="0.85"/>
<path d="M427.571 44.8965L416.615 96.4948L556.207 99.4829L526.767 36.3402C524.151 30.7295 518.408 27.2456 512.218 27.5145L444.652 30.4491C436.326 30.8107 429.3 36.7537 427.571 44.8965Z" fill="white" fill-opacity="0.6" stroke="black"/>
<path d="M258.021 257.647C258.032 258.307 258.385 258.831 258.813 258.824L627.214 252.393C627.641 252.386 627.976 251.85 627.964 251.19C627.953 250.53 627.6 250.006 627.172 250.013L258.772 256.444C258.344 256.451 258.009 256.987 258.021 257.647Z" fill="#793333"/>
<path d="M361.185 258.658C361.843 258.715 362.386 258.595 362.404 258.387L365.21 169.104L378.026 79.8204C378.044 79.613 377.531 79.4002 376.874 79.3426C376.216 79.2851 375.673 79.4055 375.655 79.613L362.84 168.896L360.033 258.18C360.015 258.387 360.528 258.6 361.185 258.658Z" fill="#793333"/>
<path d="M361.185 258.658C361.843 258.715 362.386 258.595 362.404 258.387L365.21 169.104L378.026 79.8204C378.044 79.613 377.531 79.4002 376.874 79.3426C376.216 79.2851 375.673 79.4055 375.655 79.613L362.84 168.896L360.033 258.18C360.015 258.387 360.528 258.6 361.185 258.658Z" fill="#793333"/>
</svg>
