<svg width="133" height="133" viewBox="0 0 133 133" fill="none" xmlns="http://www.w3.org/2000/svg">
<path d="M66.6657 132.11C30.2149 132.11 0.665726 102.561 0.665726 66.11C0.665726 29.6592 30.2149 0.110008 66.6657 0.110008C103.117 0.110008 132.666 29.6592 132.666 66.11C132.666 102.561 103.117 132.11 66.6657 132.11Z" fill="#3F3D56"/>
<path d="M112.166 66.11C112.166 41.0211 91.7546 20.61 66.6657 20.61C41.5768 20.61 21.1657 41.0211 21.1657 66.11C21.1657 91.1989 41.5768 111.61 66.6657 111.61C91.7546 111.61 112.166 91.1989 112.166 66.11ZM111.166 66.11C111.166 90.6471 91.2033 110.61 66.6657 110.61C42.1281 110.61 22.1657 90.6471 22.1657 66.11C22.1657 41.5729 42.1281 21.61 66.6657 21.61C91.2033 21.61 111.166 41.5729 111.166 66.11Z" fill="white"/>
<path d="M105.666 66.11C105.666 87.6491 88.2048 105.11 66.6657 105.11C45.1266 105.11 27.6657 87.6491 27.6657 66.11C27.6657 44.5709 45.1266 27.11 66.6657 27.11C88.2048 27.11 105.666 44.5709 105.666 66.11ZM41.3144 56.7709L48.2244 61.2744L50.8792 57.2011L41.3144 56.7709ZM51.8342 79.6754L49.994 75.1749L44.1997 82.797L51.8342 79.6754ZM69.5279 95.11L64.6657 86.862V95.11H69.5279ZM69.5279 47.3581L64.6657 39.11V47.3581H69.5279ZM91.1317 82.797L85.3375 75.1749L83.4973 79.6754L91.1317 82.797ZM94.017 56.7709L84.4522 57.2011L87.107 61.2744L94.017 56.7709Z" fill="#E6E6E6"/>
</svg>
